<svg xmlns="http://www.w3.org/2000/svg" xmlns:xlink="http://www.w3.org/1999/xlink" width="352.825" height="353.155" viewBox="0 0 352.82462 353.15546"><defs><linearGradient xlink:href="#a" id="b" x1="-665.657" y1="1098.042" x2="-842.07" y2="1097.995" gradientUnits="userSpaceOnUse"/><linearGradient id="a"><stop offset="0" stop-color="#b59078"/><stop offset="1" stop-color="#5f4738"/></linearGradient></defs><g transform="translate(1018.482 -921.582)"><circle r="176.412" cy="1097.995" cx="-842.07" fill="#5f4738"/><path d="M-901.764 1142.811a6.796 6.796 0 0 0-6.813 6.81v4.641a6.798 6.798 0 0 0 6.813 6.813h2.86l17.407 62.35 70.649.167 16.476-62.517h2.908a6.798 6.798 0 0 0 6.813-6.813v-4.64a6.796 6.796 0 0 0-6.813-6.81h-110.3z" fill="#3f2e2a"/><g fill="#008f3f"><path d="M-832.82 1038.458c-1.056-1.457-1.414-2.126-1.836-3.438-1.104-3.43-1.566-6.58-1.566-10.677 0-6.761 1.58-13.289 4.898-20.237.934-1.957 1.26-2.46 2.078-3.198 2.614-2.362 6.243-4.13 15.022-7.32 5.95-2.163 5.943-2.161 9.43-2.16 2.517.001 3.182.063 4.554.422.884.23 1.884.534 2.221.673l.614.253-2.467 1.419c-16.235 9.337-27.95 23.547-30.89 37.465-.51 2.422-.901 6.525-.738 7.758.061.467.085.848.052.848-.032 0-.65-.814-1.371-1.808z"/><path d="M-830.161 1042.053c-.466-.31-.473-5.885-.01-8.608 1.555-9.162 6.58-18.012 14.996-26.413 5.21-5.2 11.05-9.557 17.255-12.873l1.73-.924 1.175.579c2.274 1.121 7.89 4.937 7.89 5.361 0 .08-.381.203-.846.273-1.268.19-2.94.875-4.33 1.773-3.78 2.447-6.431 6.99-7.689 13.18-.205 1.01-.45 1.863-.546 1.897-.408.145-3.393 2.197-4.625 3.18-.737.587-2.368 2.034-3.625 3.215-2.228 2.093-3.09 2.984-10.962 11.322-3.955 4.19-6.388 6.463-7.976 7.45-1.017.633-2.01.873-2.437.588zm32.857-50.216c-.442-.196-1.567-.567-2.5-.824-1.518-.418-2.025-.468-4.822-.479-2.47-.01-3.408.057-4.476.32l-1.35.33-1.398-.58c-1.769-.737-2.954-1.804-2.954-2.658 0-1.273 1.432-3.107 3.843-4.921 1.193-.898 1.475-1.023 3.065-1.363.964-.206 2.36-.381 3.102-.389 1.15-.011 1.523.068 2.522.535.645.302 1.494.84 1.886 1.194.393.355.76.645.814.645.054 0 .272-.46.482-1.024.602-1.608 1.88-3.954 2.867-5.266 1.6-2.124 3.755-3.686 6.218-4.506 1.202-.4 1.66-.454 3.882-.454 2.841 0 4.287.21 4.77.694.321.32.32.349-.027 1.023-.196.382-.646.97-.998 1.31-.7.671-.776.924-.38 1.253.208.172.588.105 1.893-.336 6.739-2.277 15.106-2.033 24.246.707 3.296.988 6.065 2.106 9.315 3.761 3.663 1.866 6.86 4.251 6.364 4.748-.062.062-1.62-.181-3.462-.54-9.137-1.783-17.245-2.036-26.206-.818-8.155 1.108-17.556 3.96-24.386 7.4-.677.34-1.292.614-1.368.607-.076-.007-.5-.173-.942-.37z"/><path d="M-787.293 997.77c-1.634-1.303-4.457-3.188-6.314-4.218l-1.606-.89 2.004-.915c15.553-7.094 32.467-9.156 48.468-5.907 1.386.281 2.58.571 2.651.644.072.073-.57.793-1.426 1.599-2.005 1.887-3.724 2.575-6.524 2.609-4.465.054-10.872-.37-12.753-.844-4.176-1.052-8.14-1.212-11.365-.458-.625.146-2.164.756-3.42 1.355-2.559 1.22-5.13 3.398-7.113 6.025-.64.849-1.233 1.625-1.317 1.724-.084.099-.662-.227-1.285-.724z"/><path d="M-741.837 1072.37c-.551-2.144-1.367-4.445-3.156-8.902-6.719-16.735-16.72-35.066-26.278-48.161-3.667-5.024-6.4-8.26-10.407-12.322l-3.613-3.661.453-.883c.249-.486 1.532-1.969 2.852-3.296 2.714-2.73 5.204-4.221 8.239-4.935 2.363-.555 7.508-.368 10.302.375 1.1.293 2.039.571 2.087.62.047.047-.426 1.191-1.053 2.542-.627 1.35-1.14 2.543-1.14 2.649 0 .28 5.314 1.876 9.723 2.922 7.73 1.833 12.242 3.774 16.354 7.036.303.24.606 1.229.947 3.087.791 4.303.672 5.436-.693 6.588l-.643.543.597.846c.328.465 1.756 2.065 3.175 3.554 2.683 2.819 4.095 5.107 4.6 7.457.22 1.017.19 1.108-.562 1.744-1.431 1.21-2.842 1.679-4.62 1.536-1.026-.082-1.674-.026-1.825.159-.15.184.525 2.84 1.902 7.473l2.135 7.187-.402 1.053c-.656 1.718-1.426 2.181-2.972 1.787l-.694-.178-.003 4.993c-.005 10.334-1.03 16.042-3.29 18.314-1.238 1.245-1.669 1.218-2.015-.127z"/><path d="M-746.85 1071.29c-10.954-5.536-20.027-13.405-27.913-24.209-2.186-2.994-4.944-7.313-6.589-10.319-1.343-2.453-1.561-2.363-3.372 1.39-2.236 4.633-3.943 6.118-7.238 6.295l-1.515.081-1.427-2.774c-1.652-3.21-3.03-7.112-3.92-11.094-.856-3.837-1.1-11.473-.48-15.038 1.367-7.855 5.112-13.344 10.171-14.907 2.92-.901 3.081-.848 5.947 1.955 11.081 10.836 23.887 30.841 33.87 52.91 3.07 6.785 6.726 16.23 6.726 17.373 0 .435-.468.252-4.26-1.664z"/></g><g fill="#36a440"><path d="M-954.464 1072.043c-.457-1.297-.387-5.68.138-8.65 1.04-5.882 2.911-12.494 7.72-27.273 1.65-5.07 3.255-10.184 3.567-11.364.452-1.715.74-2.312 1.428-2.968.474-.451.996-.82 1.16-.821.516-.002 3.283-1.97 3.619-2.576.696-1.255.194-2.814-1.813-5.627-.642-.9-1.097-1.747-1.012-1.885.313-.507 2.82-1.116 16.666-4.054 2.634-.56 4.882-1.11 4.996-1.223.114-.114.175-1.614.136-3.333l-.072-3.125-2.778-.562c-1.527-.309-4.547-.905-6.71-1.325-5.123-.994-7.222-1.777-8.903-3.32-.719-.66-1.509-1.548-1.756-1.974-.443-.76-.44-.78.126-1.15.317-.207 1.144-.622 1.839-.921.694-.3 5.638-2.68 10.985-5.29 10.06-4.91 13.92-6.58 17.796-7.697 6.504-1.874 12.423-1.866 18.188.026 2.826.927 7.449 3.15 9.303 4.474 2.437 1.74 6.446 6.16 5.958 6.567-.058.049-1.867.745-4.02 1.548-17.824 6.643-31.71 16-43.205 29.114-7.713 8.8-13.61 17.954-22.327 34.658-9.682 18.555-10.29 19.693-10.526 19.696-.093.001-.32-.424-.503-.945z"/><path d="M-951.355 1070.851c0-.571 13.315-25.896 16.174-30.763 12.442-21.18 26.472-34.932 45.22-44.328 4.448-2.23 15.882-6.937 16.848-6.937.72 0 4.389 5.283 5.928 8.537 1.827 3.863 3.061 8.413 3.98 14.679.428 2.926 1.124 7.185 1.545 9.463l.766 4.142-2.645 3.534-2.644 3.533-1.391-.821c-1.574-.93-3.608-4.391-4.457-7.585-.314-1.181-.732-2.146-.93-2.145-.198 0-.767 1.649-1.265 3.662-1.002 4.046-5.196 12.853-6.519 13.688-2.154 1.358-4.825-1.828-12.75-15.205-2.674-4.515-5.086-8.208-5.36-8.208s-.761.577-1.083 1.282c-.454.997-.392 2.936.276 8.71.813 7.014.812 7.464-.007 8.062-1.75 1.28-3.919.772-5.916-1.386-1.028-1.112-2.122-2.02-2.432-2.02-.4 0-.473 1.877-.25 6.518l.311 6.52-2.224 2.05c-3.337 3.075-5.373 3.324-6.343.774-.452-1.19-.62-1.104-9.186 4.688-11.224 7.59-14.996 10.416-20.862 15.64-2.631 2.342-4.784 4.105-4.784 3.916z"/></g><g fill="#36a440"><path d="M-940.153 1126.44c.56-3.45 4.826-7.446 13.22-12.38 14.892-8.756 16.924-9.661 24.158-10.77 6.03-.923 12.118-.62 18.928.943 5.32 1.221 18.61 5.473 17.939 5.74-.34.134-2.064.255-3.831.27-6.872.054-22.278 1.281-29.822 2.375-13.875 2.01-20.039 4.157-33.184 11.555-2.44 1.373-5.152 2.74-6.028 3.039l-1.594.543.214-1.314z"/><path d="M-931.525 1124.533c4.425-2.661 9.557-5.267 12.947-6.574 8.86-3.417 23.378-5.66 42.767-6.609 10.392-.508 13.75-.585 13.75-.317 0 .403-3.3 2.368-6.476 3.856-1.687.79-4.978 1.984-7.314 2.653-7.84 2.243-13.364 3.052-39.305 5.756-7.403.771-14.25 1.739-17.896 2.528-.6.13-.014-.367 1.527-1.293z"/></g><g fill="#008f3f"><path d="M-762.24 1129.61c-10.552-8.58-23.707-16.145-34.115-19.618-8.55-2.853-11.541-3.355-21.848-3.67l-9.495-.29 7.656-3.734c8.935-4.358 12.229-5.546 17.336-6.257 4.465-.62 8.88-.04 13.817 1.82 4.137 1.556 5.04 2.234 14.727 11.049 10.849 9.872 14.204 14.077 15.919 19.95.883 3.028.993 4.085.422 4.056-.209-.01-2.197-1.498-4.42-3.305z"/><path d="M-764.261 1130.598c-3.68-1.367-10.199-2.726-24.105-5.023-18.662-3.084-24.413-4.599-31.706-8.352-4.141-2.131-9.426-6.162-10.772-8.217-.84-1.281-.83-1.31.54-1.692.766-.215 5.37-.377 10.232-.36 7.191.023 9.827.241 14.142 1.168 12.668 2.723 23.817 7.971 36.87 17.355 8.258 5.937 8.935 6.658 4.799 5.121z"/></g><path d="M-846.467 1109.84c-9.34-2.94-17.119-.447-17.32-.364m17.173 33.335c.505-142.431 0-125.259 0-125.259-1.53-30.386 31.81-29.606 34.345-26.264m-34.345 26.264c-4.96-17.322-13.92-26.644-26.499-28.729m43.135 117.338c-9.483-.497-14.449 3.188-15.93 3.552" stroke="#008f3f" fill="none"/><path d="M-845.836 1249.474v-25.265l17.651-.402 17.652-.403 6.664-25.092c10.466-39.405 9.739-37.28 12.76-37.28 6.887 0 9.77-10.402 4.372-15.772-2.686-2.672-4.805-2.868-30.99-2.868h-28.109v-15.721c0-14.076.292-15.877 2.788-17.206 4.686-2.495 9.869-1.669 13.75 2.191 6.133 6.102 17.718 10.334 38.936 14.225 11.088 2.033 23.25 4.61 27.027 5.725 4.435 1.31 6.868 1.498 6.868.53 0-4.334-5.827-12.29-16.382-22.37-17.257-16.48-25.88-18.126-45.808-8.74-5.038 2.372-12.08 4.493-15.647 4.712-3.568.22-7.645.891-9.062 1.494-2.449 1.042-2.554-1.426-2.162-50.593.396-49.569.535-51.854 3.38-55.735 4.088-5.574 14.333-10.498 21.843-10.498 7.773 0 7.924 1.837.355 4.321-8.214 2.697-12.351 7.077-14.97 15.848-2.831 9.485-2.893 18.58-.17 25.063 3.567 8.493 5.422 7.89 20.648-6.707l14.011-13.433.912 10.14c.95 10.577 4.33 19.254 7.498 19.254 2.415 0 6.001-2.892 7.79-6.28 1.27-2.408 1.937-1.949 6.245 4.301 7.555 10.962 16.925 20.248 25.902 25.673 12.925 7.81 14.823 6.732 16.206-9.199.452-5.206 1.607-9.66 2.675-10.317 1.521-.936 1.544-2.405.118-7.706-2.303-8.565-2.263-8.912 1.122-9.792 3.987-1.037 3.64-5.639-.824-10.916-2.039-2.41-3.288-5.056-2.776-5.88.512-.824.52-3.355.02-5.624-.966-4.373-7.536-8.046-20.564-11.498-6.638-1.758-6.532-1.658-5.251-4.98.644-1.668 2.87-2.268 8.425-2.268 5.484 0 8.203-.717 9.936-2.622 1.312-1.442 2.385-3.044 2.385-3.56s-3.107-2.505-6.904-4.419c-8.333-4.2-21.237-6.768-28.29-5.63-3.375.545-5.165.272-5.165-.787 0-.908-2.303-1.622-5.236-1.622-4.098 0-6.25 1.071-9.91 4.931-3.479 3.67-5.483 4.721-7.832 4.11-3.788-.985-9.828 1.95-10.895 5.296-.554 1.734-2.6 2.475-7.318 2.653-7.752.291-16.449 4.372-20.655 9.69l-3.019 3.818v-80.681l7.568.007c10.137.012 32.459 3.508 45.765 7.169 5.946 1.635 17.98 6.443 26.741 10.684 34.843 16.864 62.574 43.566 79.897 76.93 13.88 26.734 20.208 52.274 20.208 81.57 0 93.272-72.62 170.179-166.125 175.93l-14.054.865v-25.265z" fill="url(#b)"/></g></svg>