<?xml version="1.0" encoding="UTF-8" standalone="no"?>
<!-- Created with Inkscape (http://www.inkscape.org/) -->

<svg
   xmlns:dc="http://purl.org/dc/elements/1.1/"
   xmlns:cc="http://creativecommons.org/ns#"
   xmlns:rdf="http://www.w3.org/1999/02/22-rdf-syntax-ns#"
   xmlns:svg="http://www.w3.org/2000/svg"
   xmlns="http://www.w3.org/2000/svg"
   xmlns:sodipodi="http://sodipodi.sourceforge.net/DTD/sodipodi-0.dtd"
   xmlns:inkscape="http://www.inkscape.org/namespaces/inkscape"
   width="13.302318mm"
   height="14.649933mm"
   viewBox="0 0 47.134196 51.909211"
   id="svg6386"
   version="1.1"
   inkscape:version="0.91 r13725"
   sodipodi:docname="tomato.svg">
  <defs
     id="defs6388" />
  <sodipodi:namedview
     id="base"
     pagecolor="#ffffff"
     bordercolor="#666666"
     borderopacity="1.0"
     inkscape:pageopacity="0.0"
     inkscape:pageshadow="2"
     inkscape:zoom="3.959798"
     inkscape:cx="16.135402"
     inkscape:cy="16.78953"
     inkscape:document-units="px"
     inkscape:current-layer="g4943-43-8"
     showgrid="false"
     fit-margin-top="0"
     fit-margin-left="0"
     fit-margin-right="0"
     fit-margin-bottom="0"
     inkscape:window-width="1301"
     inkscape:window-height="744"
     inkscape:window-x="65"
     inkscape:window-y="24"
     inkscape:window-maximized="1" />
  <metadata
     id="metadata6391">
    <rdf:RDF>
      <cc:Work
         rdf:about="">
        <dc:format>image/svg+xml</dc:format>
        <dc:type
           rdf:resource="http://purl.org/dc/dcmitype/StillImage" />
        <dc:title></dc:title>
      </cc:Work>
    </rdf:RDF>
  </metadata>
  <g
     inkscape:label="Layer 1"
     inkscape:groupmode="layer"
     id="layer1"
     transform="translate(-36.962059,-262.81553)">
    <g
       transform="matrix(0.26469987,0,0,0.26469987,122.94572,-329.16184)"
       style="opacity:1;fill:#ff0000;fill-opacity:1;stroke:#009642;stroke-width:8.39741707;stroke-miterlimit:4;stroke-dasharray:none;stroke-opacity:1"
       id="g4943-43-8">
      <path
         style="opacity:1;fill:#ff0000;fill-opacity:1;fill-rule:nonzero;stroke:none;stroke-width:8.39741707;stroke-linecap:round;stroke-miterlimit:4;stroke-dasharray:none;stroke-dashoffset:50;stroke-opacity:1"
         id="path4844-1-0"
         sodipodi:type="arc"
         sodipodi:cx="-237.79884"
         sodipodi:cy="2351.0352"
         sodipodi:rx="87.035698"
         sodipodi:ry="81.480499"
         sodipodi:start="4.6672248"
         sodipodi:end="4.4848215"
         d="m -241.7284,2269.6377 a 87.035698,81.480499 0 0 1 90.60699,74.012 87.035698,81.480499 0 0 1 -74.84549,88.1095 87.035698,81.480499 0 0 1 -97.43066,-65.979 87.035698,81.480499 0 0 1 65.96273,-94.1248"
         sodipodi:open="true" />
      <path
         style="fill:#009642;fill-opacity:1;fill-rule:evenodd;stroke:#009642;stroke-width:8.39741707;stroke-linecap:butt;stroke-linejoin:miter;stroke-miterlimit:4;stroke-dasharray:none;stroke-opacity:1"
         d="m -265.29939,2239.0916 c 19.19852,59.016 13.10634,61.6852 13.07458,61.6901 -26.92241,3.2622 -45.67714,8.7078 -59.66374,16.282 19.90004,-0.7484 39.08695,-0.7838 57.26266,0.1921 0.80302,17.8352 -0.61007,44.5347 -0.9151,66.8021 9.06422,-19.8781 18.90526,-45.9707 27.16864,-59.4421 15.90975,0.1421 36.60187,4.7431 70.48686,22.8604 -12.1543,-20.803 -36.49,-28.2064 -56.4685,-40.4028 l 34.07977,-59.1363 c -16.4686,14.3713 -32.62308,32.1978 -49.64404,40.4931 -15.63464,-13.0797 -17.81383,-28.1769 -35.38113,-49.3386 z"
         id="path4861-4-8"
         inkscape:connector-curvature="0"
         sodipodi:nodetypes="ccccccccccc" />
      <g
         id="g6979"
         style="fill:#2a4d39;fill-opacity:1;stroke:#047536;stroke-opacity:1">
        <path
           sodipodi:nodetypes="ccccc"
           inkscape:connector-curvature="0"
           id="path4863-6-1"
           d="m -227.72528,2312.775 c -1.52776,-6.9408 -0.53265,-12.6201 1.37265,-17.8444 -0.52845,-7.5849 -6.20332,-10.3688 -12.25506,-4.7203 -4.14281,6.0909 -3.36719,13.5231 -2.91182,20.868 4.59808,6.0908 9.19615,5.4991 13.79423,1.6967 z"
           style="fill:#2a4d39;fill-opacity:1;fill-rule:evenodd;stroke:#047536;stroke-width:8.39741707;stroke-linecap:butt;stroke-linejoin:miter;stroke-miterlimit:4;stroke-dasharray:none;stroke-opacity:1" />
        <path
           sodipodi:nodetypes="cc"
           inkscape:connector-curvature="0"
           id="path4865-9-0"
           d="m -238.60769,2290.2103 c -1.07096,5.8709 2.5334,10.1141 12.25506,4.7203"
           style="fill:#2a4d39;fill-opacity:1;fill-rule:evenodd;stroke:#047536;stroke-width:8.39741707;stroke-linecap:butt;stroke-linejoin:miter;stroke-miterlimit:4;stroke-dasharray:none;stroke-opacity:1" />
      </g>
      <path
         style="fill:#ffffff;fill-opacity:1;fill-rule:evenodd;stroke:none;stroke-width:8.39741707;stroke-linecap:butt;stroke-linejoin:miter;stroke-miterlimit:4;stroke-dasharray:none;stroke-opacity:1"
         d="m -283.71675,2382.488 c 3.69339,1.3978 1.41388,13.1954 -1.00613,15.1659 -1.44874,5.3119 -22.81231,-13.9216 -25.54423,-30.4294 -0.0512,-6.7042 4.358,-16.7321 7.05008,-10.6983 4.62481,9.726 9.75875,18.7302 19.50028,25.9618 z"
         id="path4941-2-2"
         inkscape:connector-curvature="0"
         sodipodi:nodetypes="ccccc"
         inkscape:transform-center-x="-11.77204"
         inkscape:transform-center-y="2.4989493" />
    </g>
  </g>
</svg>
