<svg xmlns="http://www.w3.org/2000/svg" width="225.586" height="275.311" viewBox="0 0 211.48683 258.10407"><defs><clipPath id="a"><rect ry="18.472" y="3863.653" x="941.133" height="177.748" width="151.399" fill="#5f4738" stroke="#fff" stroke-width="2.504" stroke-linecap="round" stroke-dashoffset="50"/></clipPath><filter height="1.3" width="1.3" y="-.15" x="-.15" id="b" color-interpolation-filters="sRGB"><feTurbulence type="fractalNoise" numOctaves="3" baseFrequency="0.25 0.4" seed="5"/><feColorMatrix result="result5" values="1 0 0 0 0 0 1 0 0 0 0 0 1 0 0 0 0 0 1 0"/><feComposite in="SourceGraphic" operator="in" in2="result5"/><feMorphology operator="dilate" radius="1.5" result="result3"/><feTurbulence numOctaves="5" baseFrequency=".03" type="fractalNoise" seed="7"/><feGaussianBlur stdDeviation=".5" result="result91"/><feDisplacementMap in="result3" xChannelSelector="R" yChannelSelector="G" scale="27" result="result4" in2="result91"/><feComposite in="result4" k3=".8" k1="1.3" result="result2" operator="arithmetic" in2="result4"/><feBlend in2="result2" mode="screen" in="result2"/></filter></defs><g transform="translate(-1107.554 -4570.075) scale(1.18863)"><rect clip-path="url(#a)" transform="matrix(1.1752 0 0 1.22164 -174.23 -875.164)" ry="22.566" y="3840.064" x="925.831" height="217.144" width="177.925" fill="#5f4738" stroke="#fff" stroke-width="3.338" stroke-linecap="round" stroke-dashoffset="50" filter="url(#b)"/><rect ry="21.068" y="3852.026" x="939.197" height="202.727" width="163.108" fill="none" stroke="#fff" stroke-width="2.775" stroke-linecap="round" stroke-dasharray="2.7750001,8.32500029" stroke-dashoffset="27.75"/><path d="M999.72 4003.653c-1.329 0-2.4 1.07-2.4 2.4v1.634c0 1.33 1.071 2.4 2.4 2.4h1.008l6.133 21.966 24.889.059 5.805-22.025h1.024c1.33 0 2.4-1.07 2.4-2.4v-1.635a2.394 2.394 0 0 0-2.4-2.399h-38.858zm24.29-36.763c-.373-.513-.499-.749-.647-1.211-.39-1.209-.552-2.318-.552-3.762 0-2.382.557-4.681 1.725-7.13.33-.688.445-.865.733-1.126.92-.832 2.2-1.455 5.292-2.579 2.096-.761 2.094-.76 3.322-.76.887 0 1.12.022 1.604.148.312.082.664.188.783.237l.216.09-.869.5c-5.72 3.289-9.847 8.295-10.882 13.198-.18.853-.318 2.299-.26 2.733.021.165.03.3.018.3s-.229-.288-.483-.638z" fill="#fff"/><path d="M1024.946 3968.157c-.164-.11-.166-2.074-.004-3.033.548-3.228 2.319-6.345 5.284-9.305a25.976 25.976 0 0 1 6.078-4.535l.61-.326.414.204c.801.395 2.78 1.74 2.78 1.889 0 .028-.135.071-.299.096-.446.067-1.035.308-1.525.625-1.332.862-2.266 2.462-2.709 4.643-.072.356-.159.656-.192.668-.144.051-1.196.774-1.63 1.12a27.5 27.5 0 0 0-1.277 1.133c-.784.737-1.089 1.051-3.861 3.989-1.394 1.476-2.251 2.277-2.81 2.625-.359.223-.708.307-.86.207zm11.576-17.691c-.156-.07-.552-.2-.881-.29-.535-.148-.714-.165-1.699-.17-.87-.003-1.2.02-1.577.113l-.476.117-.492-.205c-.623-.26-1.04-.635-1.04-.936 0-.448.504-1.095 1.353-1.734.42-.316.52-.36 1.08-.48.34-.073.831-.134 1.093-.137.405-.004.536.024.888.189.228.106.527.295.665.42s.267.227.287.227c.019 0 .095-.162.17-.36a8.807 8.807 0 0 1 1.01-1.856 4.535 4.535 0 0 1 2.19-1.587c.423-.141.585-.16 1.368-.16 1 0 1.51.074 1.68.245.113.113.113.123-.01.36a2.13 2.13 0 0 1-.351.461c-.247.237-.274.326-.134.442.073.06.207.037.667-.118 2.374-.803 5.322-.717 8.542.249 1.16.348 2.137.742 3.281 1.325 1.29.657 2.417 1.497 2.242 1.672-.021.022-.57-.064-1.22-.19-3.218-.628-6.075-.717-9.231-.288-2.873.39-6.185 1.395-8.592 2.607-.238.12-.455.216-.482.214a2.548 2.548 0 0 1-.331-.13z" fill="#fff"/><path d="M1040.048 3952.556a19.286 19.286 0 0 0-2.224-1.486l-.566-.314.706-.322c5.48-2.5 11.438-3.226 17.075-2.081.489.099.91.201.934.227.026.026-.2.28-.502.563-.707.665-1.312.907-2.299.92-1.572.018-3.83-.13-4.492-.298-1.471-.37-2.868-.427-4.004-.161-.22.051-.762.266-1.205.477-.902.43-1.807 1.197-2.506 2.123-.226.299-.434.572-.464.607-.03.035-.233-.08-.453-.255z" fill="#fff"/><path d="M1056.062 3978.837c-.194-.755-.481-1.566-1.112-3.136-2.367-5.896-5.89-12.354-9.257-16.967-1.292-1.77-2.255-2.91-3.666-4.34l-1.273-1.29.16-.312c.087-.17.54-.693 1.004-1.16.956-.963 1.833-1.488 2.903-1.74.832-.195 2.645-.13 3.629.133.387.103.718.201.735.218.017.017-.15.42-.37.896-.222.475-.402.895-.402.933 0 .098 1.872.66 3.425 1.03 2.724.645 4.313 1.329 5.762 2.478.106.085.213.433.333 1.087.279 1.516.237 1.916-.244 2.321l-.227.192.21.298c.116.164.62.727 1.12 1.252.945.993 1.442 1.799 1.62 2.627.077.358.067.39-.198.614-.504.427-1.001.592-1.628.541-.361-.029-.59-.009-.643.056-.053.065.185 1 .67 2.633l.753 2.532-.142.371c-.231.605-.503.768-1.047.63l-.245-.063v1.759c-.003 3.64-.364 5.651-1.16 6.452-.436.438-.588.429-.71-.045z" fill="#fff"/><path d="M1054.296 3978.456c-3.859-1.95-7.055-4.722-9.833-8.528a38.166 38.166 0 0 1-2.322-3.635c-.473-.865-.55-.833-1.188.49-.787 1.631-1.389 2.154-2.55 2.217l-.533.028-.503-.977c-.582-1.13-1.067-2.505-1.38-3.908-.302-1.352-.388-4.042-.17-5.298.482-2.767 1.8-4.701 3.583-5.252 1.029-.317 1.086-.298 2.095.689 3.904 3.818 8.416 10.865 11.932 18.64 1.082 2.39 2.37 5.718 2.37 6.12 0 .154-.165.09-1.5-.586zm-73.141.266c-.161-.457-.136-2.001.048-3.047.367-2.073 1.026-4.402 2.72-9.609.582-1.786 1.147-3.587 1.257-4.003.16-.604.26-.815.503-1.046.167-.159.35-.289.408-.289.183 0 1.157-.694 1.276-.907.245-.442.068-.992-.64-1.983-.225-.317-.386-.615-.356-.664.11-.178.994-.393 5.872-1.428.928-.197 1.72-.391 1.76-.431.04-.04.061-.568.048-1.174l-.026-1.101-.978-.198c-.538-.109-1.602-.319-2.364-.467-1.805-.35-2.544-.626-3.137-1.17-.253-.232-.531-.545-.618-.695-.156-.268-.156-.274.044-.405.112-.073.403-.22.648-.325.244-.105 1.986-.944 3.87-1.863 3.544-1.73 4.904-2.318 6.27-2.712 2.29-.66 4.376-.657 6.407.01.996.326 2.624 1.11 3.277 1.576.859.613 2.271 2.17 2.1 2.313-.021.017-.659.263-1.417.545-6.28 2.34-11.171 5.637-15.22 10.257-2.718 3.1-4.796 6.325-7.867 12.21-3.41 6.537-3.625 6.938-3.708 6.939-.033 0-.113-.15-.177-.333z" fill="#fff"/><path d="M982.25 3978.302c0-.201 4.691-9.123 5.698-10.838 4.384-7.461 9.326-12.306 15.931-15.616 1.567-.786 5.595-2.444 5.936-2.444.253 0 1.546 1.861 2.088 3.007.644 1.361 1.078 2.964 1.402 5.172.15 1.03.396 2.53.544 3.333l.27 1.46-.932 1.245-.931 1.245-.49-.29c-.555-.327-1.271-1.547-1.57-2.672-.11-.416-.258-.756-.328-.756s-.27.581-.446 1.29c-.353 1.426-1.83 4.529-2.296 4.823-.759.478-1.7-.644-4.492-5.357-.942-1.59-1.792-2.892-1.888-2.892-.097 0-.268.204-.382.452-.16.351-.138 1.035.098 3.069.286 2.47.286 2.629-.003 2.84-.617.45-1.38.272-2.084-.489-.362-.391-.748-.711-.857-.711-.141 0-.167.661-.088 2.296l.11 2.297-.784.722c-1.175 1.084-1.893 1.171-2.234.273-.16-.419-.219-.389-3.237 1.652-3.954 2.673-5.283 3.67-7.35 5.51-.926.824-1.685 1.445-1.685 1.379zm4.955 18.072c.197-1.216 1.7-2.624 4.657-4.362 5.247-3.085 5.962-3.404 8.51-3.794 2.125-.325 4.27-.218 6.67.332 1.873.43 6.556 1.928 6.319 2.022-.12.047-.727.09-1.35.095-2.42.02-7.848.452-10.506.837-4.888.708-7.06 1.465-11.69 4.07-.86.484-1.815.966-2.124 1.071l-.561.192.075-.463z" fill="#fff"/><path d="M990.244 3995.702c1.56-.938 3.367-1.856 4.562-2.316 3.121-1.204 8.235-1.994 15.066-2.329 3.661-.179 4.844-.206 4.844-.111 0 .142-1.162.834-2.281 1.358-.595.279-1.754.7-2.577.935-2.762.79-4.708 1.075-13.847 2.028-2.608.271-5.02.612-6.305.89-.21.046-.004-.129.538-.455zm57.118 3.048c-3.717-3.022-8.352-5.688-12.018-6.91-3.012-1.006-4.066-1.183-7.697-1.294l-3.345-.102 2.697-1.315c3.148-1.536 4.308-1.954 6.107-2.205 1.573-.218 3.128-.014 4.868.641 1.457.549 1.776.788 5.188 3.893 3.822 3.478 5.004 4.96 5.608 7.028.312 1.067.35 1.44.149 1.43-.073-.005-.774-.529-1.557-1.165z" fill="#fff"/><path d="M1046.65 3999.099c-1.296-.482-3.593-.96-8.492-1.77-6.574-1.086-8.6-1.62-11.17-2.942-1.459-.751-3.32-2.171-3.795-2.895-.295-.452-.292-.461.19-.596.27-.076 1.893-.133 3.605-.127 2.534.008 3.462.085 4.983.411 4.462.96 8.39 2.808 12.989 6.114 2.909 2.092 3.147 2.346 1.69 1.805z" fill="#fff"/><path d="M1019.202 3992.037c-3.29-1.035-6.031-.157-6.102-.128m6.05 11.744c.178-50.178 0-44.128 0-44.128-.54-10.705 11.206-10.43 12.1-9.253m-12.1 9.253c-1.747-6.103-4.904-9.386-9.335-10.121m15.195 41.338c-3.34-.176-5.09 1.123-5.612 1.25" stroke-width="1.558" stroke="#fff" fill="none"/><text y="3890.881" x="981.946" style="line-height:129.99999523%;-inkscape-font-specification:'Courier 10 Pitch, Normal';text-align:start" font-weight="400" font-size="37.5" font-family="Courier 10 Pitch" letter-spacing="0" word-spacing="0" fill="#fff"><tspan style="-inkscape-font-specification:Lato" y="3890.881" x="981.946" font-size="20" font-family="Lato">Богатый </tspan><tspan style="-inkscape-font-specification:Lato" y="3916.881" x="981.946" font-size="20" font-family="Lato">Урожай</tspan></text></g></svg>