<svg xmlns="http://www.w3.org/2000/svg" xmlns:xlink="http://www.w3.org/1999/xlink" viewBox="0 0 117.2905 117.2905" height="125.11" width="125.11"><defs><linearGradient id="a"><stop offset="0" stop-color="#b59078"/><stop offset="1" stop-color="#5f4738"/></linearGradient><linearGradient y2="5524.197" x2="1713.945" y1="5524.197" x1="1596.654" gradientTransform="translate(148.673 32.124)" gradientUnits="userSpaceOnUse" id="b" xlink:href="#a"/></defs><g transform="translate(-1745.327 -5497.676)"><circle cx="1803.972" cy="5556.321" r="58.645" fill="url(#b)"/><path d="M1796.215 5583.408c-.6 0-1.083.482-1.083 1.082v.738c0 .6.483 1.083 1.083 1.083h.454l2.767 9.91 11.23.027 2.618-9.937h.463c.6 0 1.082-.483 1.082-1.083v-.738c0-.6-.483-1.082-1.082-1.082h-17.532z" fill="#3f2e2a"/><g fill="#008f3f"><path d="M1807.173 5566.821c-.168-.232-.225-.338-.292-.546-.175-.546-.249-1.046-.249-1.698 0-1.074.251-2.112.779-3.216.148-.311.2-.391.33-.509.416-.375.993-.656 2.388-1.163.945-.344.945-.343 1.499-.343.4 0 .505.01.724.067.14.036.299.085.353.107l.097.04-.392.225c-2.58 1.485-4.443 3.743-4.91 5.956-.08.384-.143 1.037-.117 1.233.01.074.013.134.008.134-.005 0-.103-.129-.218-.287z"/><path d="M1807.596 5567.393c-.074-.05-.075-.936-.002-1.369.247-1.456 1.046-2.863 2.384-4.198a11.72 11.72 0 0 1 2.742-2.046l.275-.147.187.092c.362.178 1.254.785 1.254.852 0 .013-.06.032-.134.043-.202.03-.468.14-.688.282-.601.39-1.023 1.111-1.223 2.095-.032.16-.071.296-.086.302-.065.023-.54.349-.736.505-.117.093-.376.323-.576.511-.354.333-.491.475-1.742 1.8-.629.666-1.016 1.027-1.268 1.184-.162.1-.32.139-.387.094zm5.222-7.983a3.76 3.76 0 0 0-.397-.13c-.241-.067-.322-.075-.766-.076-.393-.002-.542.009-.712.05l-.215.053-.222-.092c-.28-.117-.47-.287-.47-.423 0-.202.228-.494.612-.782.19-.143.234-.163.487-.217.153-.032.375-.06.493-.061a.719.719 0 0 1 .4.085c.103.048.238.133.3.19a.74.74 0 0 0 .13.102.59.59 0 0 0 .076-.163c.096-.255.3-.628.456-.837.254-.337.597-.586.988-.716.191-.064.264-.072.618-.072.451 0 .68.033.758.11.05.051.05.056-.005.163a.96.96 0 0 1-.158.208c-.111.107-.124.147-.06.199.032.027.093.017.3-.053 1.071-.362 2.401-.324 3.854.112.524.157.964.335 1.48.598.583.296 1.091.676 1.012.754-.01.01-.257-.028-.55-.085a12.259 12.259 0 0 0-4.165-.13c-1.297.176-2.791.63-3.877 1.176a1.408 1.408 0 0 1-.217.096 1.158 1.158 0 0 1-.15-.058z"/><path d="M1814.41 5560.354a8.702 8.702 0 0 0-1.004-.67l-.255-.142.318-.146c2.472-1.127 5.16-1.455 7.704-.939.22.045.41.091.422.103.01.012-.091.126-.227.254-.319.3-.592.41-1.037.415-.71.008-1.728-.059-2.027-.134-.664-.168-1.294-.193-1.807-.073a3.69 3.69 0 0 0-.543.215c-.407.194-.816.54-1.13.958l-.21.274c-.014.016-.105-.036-.204-.115z"/><path d="M1821.635 5572.211c-.088-.34-.218-.706-.502-1.415-1.068-2.66-2.658-5.573-4.177-7.655a15.662 15.662 0 0 0-1.654-1.958l-.574-.582.072-.14c.04-.078.243-.314.453-.524.431-.434.827-.671 1.31-.785.375-.088 1.193-.058 1.637.06.175.046.324.09.332.098.007.008-.068.19-.168.404a4.56 4.56 0 0 0-.18.421c0 .045.844.299 1.545.465 1.229.291 1.946.6 2.6 1.118.047.038.096.196.15.49.125.685.106.865-.11 1.048l-.103.086.095.135a8.7 8.7 0 0 0 .505.565c.426.448.65.811.731 1.185.035.162.03.176-.09.277a.943.943 0 0 1-.734.244c-.163-.013-.266-.004-.29.026-.024.029.084.45.303 1.187l.339 1.143-.064.167c-.104.273-.227.347-.472.284l-.11-.028-.001.793c-.001 1.643-.164 2.55-.523 2.911-.197.198-.265.194-.32-.02z"/><path d="M1820.838 5572.04c-1.741-.88-3.183-2.131-4.437-3.848a17.22 17.22 0 0 1-1.047-1.64c-.214-.39-.248-.376-.536.22-.356.737-.627.973-1.15 1l-.241.014-.227-.441a7.533 7.533 0 0 1-.623-1.763c-.136-.61-.175-1.824-.077-2.39.218-1.25.813-2.122 1.617-2.37.464-.143.49-.135.945.31 1.762 1.723 3.797 4.903 5.384 8.41.488 1.079 1.069 2.58 1.069 2.762 0 .07-.074.04-.677-.265z"/></g><g fill="#36a440"><path d="M1787.838 5572.16c-.073-.207-.062-.904.022-1.375.165-.936.463-1.986 1.227-4.336.262-.805.517-1.618.567-1.806.072-.272.118-.367.227-.472.075-.071.158-.13.184-.13.082 0 .522-.313.576-.41.11-.199.03-.447-.289-.894-.102-.143-.174-.278-.16-.3.05-.08.448-.177 2.649-.644.418-.089.776-.176.794-.194.018-.018.027-.257.021-.53l-.011-.497-.442-.09-1.066-.21c-.815-.158-1.148-.282-1.415-.528a1.855 1.855 0 0 1-.28-.313c-.07-.121-.07-.124.02-.183a2.52 2.52 0 0 1 .293-.147c.11-.047.896-.426 1.746-.84 1.599-.78 2.212-1.046 2.829-1.224 1.033-.298 1.974-.296 2.89.004.45.148 1.184.501 1.48.712.387.276 1.024.979.946 1.043-.01.008-.297.119-.639.246-2.833 1.056-5.04 2.544-6.867 4.628-1.226 1.399-2.163 2.854-3.549 5.509-1.539 2.95-1.636 3.13-1.673 3.13-.015 0-.05-.067-.08-.15z"/><path d="M1788.332 5571.97c0-.09 2.117-4.116 2.571-4.89 1.978-3.366 4.208-5.552 7.188-7.046.707-.354 2.524-1.102 2.678-1.102.114 0 .697.84.942 1.357.29.614.486 1.337.632 2.333.069.465.18 1.142.246 1.504l.122.658-.42.562-.42.562-.222-.131c-.25-.148-.573-.698-.708-1.206-.05-.187-.117-.34-.148-.34-.032 0-.122.262-.201.582-.16.643-.826 2.043-1.036 2.175-.343.216-.767-.29-2.027-2.417-.425-.717-.809-1.304-.852-1.304-.044 0-.121.092-.172.204-.072.158-.063.466.044 1.384.129 1.115.129 1.186-.001 1.281-.279.204-.623.123-.94-.22-.164-.177-.338-.321-.387-.321-.064 0-.075.298-.04 1.036l.05 1.036-.354.326c-.53.489-.854.529-1.008.123-.072-.189-.099-.175-1.46.746-1.785 1.206-2.384 1.655-3.316 2.485-.419.373-.76.653-.76.623z"/></g><g fill="#36a440"><path d="M1790.113 5580.806c.089-.549.767-1.184 2.101-1.968 2.367-1.392 2.69-1.536 3.84-1.712.958-.147 1.926-.098 3.009.15.845.194 2.958.87 2.85.912-.053.021-.327.04-.608.043-1.092.009-3.541.204-4.74.378-2.206.32-3.185.66-5.275 1.836-.388.219-.819.436-.958.483l-.253.087.034-.21z"/><path d="M1791.484 5580.502c.703-.422 1.52-.837 2.058-1.044 1.408-.544 3.716-.9 6.798-1.05 1.652-.082 2.185-.094 2.185-.051 0 .064-.524.376-1.03.613a9.527 9.527 0 0 1-1.162.421c-1.246.357-2.124.485-6.247.915-1.177.123-2.265.277-2.845.402-.095.02-.002-.058.243-.206z"/></g><g fill="#008f3f"><path d="M1818.392 5581.31c-1.678-1.364-3.769-2.567-5.423-3.119-1.359-.453-1.834-.533-3.473-.583l-1.509-.046 1.217-.594c1.42-.692 1.944-.881 2.756-.994.71-.099 1.411-.007 2.196.289.657.247.801.355 2.34 1.756 1.725 1.57 2.258 2.238 2.53 3.171.141.482.159.65.068.645-.033-.002-.35-.238-.702-.525z"/><path d="M1818.07 5581.467c-.584-.218-1.62-.434-3.831-.799-2.966-.49-3.88-.73-5.04-1.327-.658-.34-1.498-.98-1.712-1.306-.133-.204-.132-.209.086-.27.122-.034.854-.06 1.626-.057 1.143.004 1.562.039 2.248.186 2.014.433 3.786 1.267 5.86 2.759 1.313.943 1.42 1.058.763.814z"/></g><path d="M1805.004 5578.167c-1.485-.467-2.721-.071-2.753-.058m2.729 5.299c.08-22.64 0-19.91 0-19.91-.243-4.83 5.057-4.706 5.46-4.175m-5.46 4.175c-.788-2.753-2.212-4.235-4.211-4.566m6.856 18.65c-1.507-.079-2.297.507-2.532.565" stroke-width=".159" stroke="#008f3f" fill="none"/><path d="M1814.85 5543.48c-.6 0-1.083.483-1.083 1.083v.738c0 .6.483 1.083 1.083 1.083h.454l2.767 9.91 11.23.027 2.619-9.937h.462c.6 0 1.083-.483 1.083-1.083v-.738c0-.6-.483-1.082-1.083-1.082h-17.532z" fill="#3f2e2a"/><g fill="#008f3f"><path d="M1825.809 5526.894c-.168-.232-.225-.338-.292-.546-.176-.546-.25-1.046-.25-1.698 0-1.074.252-2.112.78-3.216.148-.311.2-.391.33-.509.415-.375.992-.656 2.387-1.163.946-.344.945-.343 1.5-.343.4 0 .505.01.723.067.14.036.3.085.353.107l.098.04-.392.225c-2.581 1.485-4.443 3.743-4.91 5.956-.082.384-.144 1.037-.118 1.233.01.074.014.134.009.134-.006 0-.104-.129-.218-.287z"/><path d="M1826.231 5527.466c-.074-.05-.075-.936-.002-1.369.248-1.456 1.046-2.863 2.384-4.198a11.72 11.72 0 0 1 2.743-2.046l.275-.147.187.092c.361.178 1.254.785 1.254.852 0 .013-.06.032-.135.043a1.93 1.93 0 0 0-.688.282c-.601.39-1.022 1.111-1.222 2.095-.033.16-.072.296-.087.302-.065.023-.54.349-.735.505-.117.093-.377.323-.576.511-.354.333-.492.475-1.743 1.8-.628.666-1.015 1.027-1.267 1.184-.162.1-.32.139-.388.094zm5.223-7.982a3.76 3.76 0 0 0-.398-.131c-.241-.067-.322-.075-.766-.076-.393-.002-.542.009-.712.05l-.214.053-.222-.092c-.282-.117-.47-.287-.47-.423 0-.202.228-.494.611-.782.19-.143.234-.163.487-.217.153-.032.375-.06.493-.061a.719.719 0 0 1 .401.085c.103.048.237.133.3.19a.74.74 0 0 0 .13.102.59.59 0 0 0 .076-.163c.096-.255.299-.628.456-.837.254-.337.596-.586.988-.716.19-.064.264-.072.617-.072.451 0 .681.033.758.11.051.051.051.056-.004.163a.96.96 0 0 1-.159.208c-.111.107-.123.147-.06.199.033.027.093.017.3-.053 1.072-.362 2.402-.324 3.855.112.523.157.964.335 1.48.598.582.296 1.09.676 1.012.754-.01.01-.258-.028-.55-.085a12.259 12.259 0 0 0-4.166-.13c-1.296.176-2.79.63-3.876 1.176a1.408 1.408 0 0 1-.218.096 1.158 1.158 0 0 1-.15-.058z"/><path d="M1833.045 5520.427a8.702 8.702 0 0 0-1.004-.67l-.255-.142.319-.146c2.472-1.127 5.16-1.455 7.703-.939.22.045.41.091.422.103.011.012-.09.126-.227.254-.319.3-.592.41-1.037.415-.71.008-1.728-.059-2.027-.134-.664-.168-1.294-.193-1.806-.073-.1.023-.344.12-.544.215-.407.194-.815.54-1.13.958a20.34 20.34 0 0 1-.21.274c-.013.016-.105-.036-.204-.115z"/><path d="M1840.27 5532.284c-.088-.34-.217-.706-.502-1.415-1.068-2.66-2.657-5.573-4.176-7.655a15.662 15.662 0 0 0-1.655-1.958l-.574-.582.072-.14c.04-.078.244-.314.453-.524.432-.434.828-.671 1.31-.785.376-.088 1.193-.058 1.637.06.175.046.325.09.332.098.008.008-.068.19-.167.404a4.56 4.56 0 0 0-.181.421c0 .045.844.299 1.545.465 1.229.291 1.946.6 2.6 1.118.048.038.096.196.15.49.126.685.107.865-.11 1.048l-.102.086.095.135a8.7 8.7 0 0 0 .504.565c.427.448.651.811.732 1.185.034.162.03.176-.09.277a.943.943 0 0 1-.734.244c-.163-.013-.266-.004-.29.026-.024.029.083.45.302 1.187l.34 1.143-.064.167c-.105.273-.227.347-.473.284l-.11-.028v.793c-.002 1.643-.165 2.55-.524 2.911-.196.198-.265.194-.32-.02z"/><path d="M1839.473 5532.112c-1.74-.88-3.183-2.13-4.437-3.847a17.22 17.22 0 0 1-1.047-1.64c-.213-.39-.248-.376-.536.22-.355.737-.626.973-1.15 1l-.241.014-.227-.441a7.533 7.533 0 0 1-.623-1.763c-.136-.61-.175-1.824-.076-2.39.217-1.25.812-2.122 1.616-2.37.464-.143.49-.135.946.31 1.761 1.723 3.797 4.903 5.383 8.41.488 1.079 1.07 2.58 1.07 2.762 0 .07-.075.04-.678-.265z"/></g><g fill="#36a440"><path d="M1806.473 5532.232c-.072-.206-.061-.903.022-1.374.166-.936.463-1.986 1.227-4.336.263-.805.518-1.618.567-1.806.072-.272.118-.367.227-.472.076-.071.159-.13.185-.13.082 0 .521-.313.575-.41.11-.199.03-.447-.288-.894-.102-.143-.175-.278-.161-.3.05-.08.448-.177 2.649-.644.419-.089.776-.176.794-.194.018-.018.028-.257.022-.53l-.012-.497-.441-.09-1.067-.21c-.814-.158-1.148-.282-1.415-.528a1.855 1.855 0 0 1-.28-.313c-.07-.121-.07-.124.02-.183.051-.033.183-.099.293-.147.11-.047.896-.426 1.746-.84 1.6-.78 2.213-1.046 2.829-1.224 1.034-.298 1.975-.296 2.89.004.45.148 1.185.501 1.48.712.387.276 1.024.979.947 1.043-.01.008-.297.119-.64.246-2.832 1.056-5.04 2.544-6.867 4.628-1.226 1.399-2.163 2.854-3.549 5.509-1.539 2.95-1.635 3.13-1.673 3.13-.014 0-.05-.067-.08-.15z"/><path d="M1806.968 5532.043c0-.09 2.116-4.116 2.57-4.89 1.978-3.366 4.208-5.552 7.188-7.046.707-.354 2.524-1.102 2.678-1.102.114 0 .698.84.942 1.357.29.614.487 1.337.633 2.333.068.465.178 1.142.245 1.504l.122.658-.42.562-.42.562-.222-.131c-.25-.148-.573-.698-.708-1.206-.05-.187-.116-.34-.148-.34-.031 0-.122.262-.201.582-.16.643-.826 2.043-1.036 2.175-.342.216-.767-.29-2.027-2.417-.425-.717-.808-1.304-.852-1.304-.043 0-.12.092-.172.204-.072.158-.062.466.044 1.384.13 1.115.13 1.186-.001 1.281-.278.204-.623.123-.94-.22-.164-.177-.338-.321-.387-.321-.064 0-.075.298-.04 1.036l.05 1.036-.354.326c-.53.489-.854.529-1.008.123-.072-.189-.098-.175-1.46.746-1.784 1.206-2.384 1.655-3.316 2.485-.418.373-.76.653-.76.623z"/></g><g fill="#36a440"><path d="M1808.748 5540.879c.09-.549.767-1.184 2.101-1.968 2.368-1.392 2.69-1.536 3.84-1.712.959-.147 1.926-.098 3.009.15.845.194 2.958.87 2.851.912-.054.021-.328.04-.609.043-1.092.009-3.54.204-4.74.378-2.205.32-3.185.66-5.274 1.836-.388.219-.82.436-.959.483l-.253.087.034-.21z"/><path d="M1810.12 5540.575c.703-.422 1.519-.837 2.057-1.044 1.409-.544 3.716-.9 6.798-1.05 1.652-.082 2.186-.094 2.186-.051 0 .064-.525.376-1.03.613a9.527 9.527 0 0 1-1.162.421c-1.246.357-2.124.485-6.248.915-1.176.123-2.265.277-2.844.402-.096.02-.002-.058.242-.206z"/></g><g fill="#008f3f"><path d="M1837.027 5541.383c-1.677-1.364-3.768-2.567-5.422-3.119-1.36-.453-1.835-.533-3.473-.583l-1.51-.046 1.218-.594c1.42-.692 1.943-.881 2.755-.994.71-.099 1.411-.007 2.196.289.658.247.801.355 2.341 1.756 1.724 1.57 2.258 2.238 2.53 3.171.14.482.158.65.067.645-.033-.002-.349-.238-.702-.525z"/><path d="M1836.706 5541.54c-.585-.218-1.621-.434-3.832-.799-2.966-.49-3.88-.73-5.04-1.327-.657-.34-1.497-.98-1.711-1.306-.134-.204-.133-.209.085-.27.122-.034.854-.06 1.627-.057 1.143.004 1.562.039 2.248.186 2.013.433 3.785 1.267 5.86 2.759 1.313.943 1.42 1.058.763.814z"/></g><path d="M1823.64 5538.24c-1.485-.467-2.722-.071-2.754-.058m2.73 5.298c.08-22.638 0-19.909 0-19.909-.243-4.83 5.056-4.706 5.46-4.175m-5.46 4.175c-.788-2.753-2.213-4.235-4.212-4.566m6.856 18.65c-1.507-.079-2.296.507-2.532.565" stroke-width=".159" stroke="#008f3f" fill="none"/><path d="M1774.118 5543.48c-.6 0-1.083.483-1.083 1.083v.738c0 .6.483 1.083 1.083 1.083h.454l2.767 9.91 11.23.027 2.619-9.937h.462c.6 0 1.083-.483 1.083-1.083v-.738c0-.6-.483-1.082-1.083-1.082h-17.532z" fill="#3f2e2a"/><g fill="#008f3f"><path d="M1785.076 5526.894c-.168-.232-.224-.338-.292-.546-.175-.546-.248-1.046-.248-1.698 0-1.074.25-2.112.778-3.216.149-.311.2-.391.33-.509.416-.375.993-.656 2.388-1.163.946-.344.945-.343 1.5-.343.399 0 .505.01.723.067.14.036.3.085.353.107l.097.04-.392.225c-2.58 1.485-4.442 3.743-4.91 5.956-.08.384-.143 1.037-.117 1.233.01.074.014.134.008.134-.005 0-.103-.129-.218-.287z"/><path d="M1785.499 5527.466c-.074-.05-.075-.936-.002-1.369.248-1.456 1.046-2.863 2.384-4.198a11.72 11.72 0 0 1 2.743-2.046l.275-.147.186.092c.362.178 1.254.785 1.254.852 0 .013-.06.032-.134.043-.202.03-.467.14-.688.282-.601.39-1.023 1.111-1.222 2.095-.033.16-.072.296-.087.302-.065.023-.54.349-.735.505a11.65 11.65 0 0 0-.577.511c-.354.333-.49.475-1.742 1.8-.629.666-1.015 1.027-1.268 1.184-.161.1-.32.139-.387.094zm5.222-7.982a3.76 3.76 0 0 0-.397-.131c-.241-.067-.322-.075-.766-.076-.393-.002-.542.009-.712.05l-.214.053-.223-.092c-.28-.117-.47-.287-.47-.423 0-.202.229-.494.612-.782.19-.143.234-.163.487-.217.153-.032.375-.06.493-.061a.719.719 0 0 1 .4.085c.103.048.238.133.3.19a.74.74 0 0 0 .13.102.59.59 0 0 0 .077-.163c.095-.255.298-.628.455-.837a2.05 2.05 0 0 1 .989-.716c.19-.064.264-.072.617-.072.451 0 .681.033.758.11.05.051.05.056-.004.163a.96.96 0 0 1-.159.208c-.111.107-.123.147-.06.199.033.027.093.017.3-.053 1.072-.362 2.402-.324 3.854.112.524.157.964.335 1.48.598.583.296 1.091.676 1.012.754-.01.01-.257-.028-.55-.085a12.259 12.259 0 0 0-4.165-.13c-1.296.176-2.79.63-3.876 1.176a1.408 1.408 0 0 1-.218.096 1.158 1.158 0 0 1-.15-.058z"/><path d="M1792.313 5520.427a8.702 8.702 0 0 0-1.004-.67l-.255-.142.318-.146c2.473-1.127 5.161-1.455 7.704-.939.22.045.41.091.422.103.011.012-.09.126-.227.254-.319.3-.592.41-1.037.415-.71.008-1.728-.059-2.027-.134-.664-.168-1.294-.193-1.806-.073-.1.023-.344.12-.544.215-.407.194-.815.54-1.13.958l-.21.274c-.013.016-.105-.036-.204-.115z"/><path d="M1799.538 5532.284c-.088-.34-.217-.706-.502-1.415-1.068-2.66-2.657-5.573-4.177-7.655a15.662 15.662 0 0 0-1.654-1.958l-.574-.582.072-.14c.04-.078.243-.314.453-.524.432-.434.827-.671 1.31-.785.375-.088 1.193-.058 1.637.06.175.046.324.09.332.098.008.008-.068.19-.167.404a4.56 4.56 0 0 0-.182.421c0 .045.845.299 1.546.465 1.229.291 1.946.6 2.6 1.118.047.038.096.196.15.49.126.685.107.865-.11 1.048l-.102.086.094.135a8.7 8.7 0 0 0 .505.565c.427.448.651.811.731 1.185.035.162.03.176-.09.277a.943.943 0 0 1-.733.244c-.164-.013-.267-.004-.29.026-.024.029.083.45.302 1.187l.34 1.143-.065.167c-.104.273-.226.347-.472.284l-.11-.028v.793c-.002 1.643-.165 2.55-.524 2.911-.197.198-.265.194-.32-.02z"/><path d="M1798.741 5532.112c-1.741-.88-3.183-2.13-4.437-3.847a17.22 17.22 0 0 1-1.047-1.64c-.213-.39-.248-.376-.536.22-.355.737-.627.973-1.15 1l-.241.014-.227-.441a7.533 7.533 0 0 1-.623-1.763c-.136-.61-.175-1.824-.076-2.39.217-1.25.812-2.122 1.616-2.37.464-.143.49-.135.946.31 1.76 1.723 3.796 4.903 5.383 8.41.488 1.079 1.07 2.58 1.07 2.762 0 .07-.075.04-.678-.265z"/></g><g fill="#36a440"><path d="M1765.741 5532.232c-.072-.206-.061-.903.022-1.374.165-.936.463-1.986 1.227-4.336.262-.805.518-1.618.567-1.806.072-.272.118-.367.227-.472.075-.071.158-.13.184-.13.083 0 .522-.313.576-.41.11-.199.03-.447-.288-.894-.102-.143-.175-.278-.161-.3.05-.08.448-.177 2.649-.644.418-.089.776-.176.794-.194.018-.018.028-.257.021-.53l-.01-.497-.442-.09-1.067-.21c-.814-.158-1.148-.282-1.415-.528a1.855 1.855 0 0 1-.28-.313c-.07-.121-.07-.124.02-.183.051-.033.183-.099.293-.147.11-.047.896-.426 1.746-.84 1.6-.78 2.213-1.046 2.829-1.224 1.034-.298 1.974-.296 2.89.004.45.148 1.185.501 1.48.712.387.276 1.024.979.946 1.043-.009.008-.296.119-.639.246-2.833 1.056-5.04 2.544-6.867 4.628-1.226 1.399-2.163 2.854-3.549 5.509-1.539 2.95-1.635 3.13-1.673 3.13-.015 0-.05-.067-.08-.15z"/><path d="M1766.235 5532.043c0-.09 2.117-4.116 2.571-4.89 1.978-3.366 4.208-5.552 7.188-7.046.707-.354 2.524-1.102 2.678-1.102.114 0 .697.84.942 1.357.29.614.487 1.337.633 2.333.068.465.178 1.142.245 1.504l.122.658-.42.562-.42.562-.222-.131c-.25-.148-.573-.698-.708-1.206-.05-.187-.117-.34-.148-.34-.031 0-.122.262-.201.582-.16.643-.826 2.043-1.036 2.175-.343.216-.767-.29-2.027-2.417-.425-.717-.808-1.304-.852-1.304-.043 0-.12.092-.172.204-.072.158-.062.466.044 1.384.129 1.115.129 1.186-.001 1.281-.278.204-.623.123-.94-.22-.164-.177-.338-.321-.387-.321-.064 0-.075.298-.04 1.036l.05 1.036-.354.326c-.53.489-.854.529-1.008.123-.072-.189-.099-.175-1.46.746-1.784 1.206-2.384 1.655-3.316 2.485-.418.373-.76.653-.76.623z"/></g><g fill="#36a440"><path d="M1768.016 5540.879c.089-.549.767-1.184 2.101-1.968 2.367-1.392 2.69-1.536 3.84-1.712.958-.147 1.926-.098 3.009.15.845.194 2.958.87 2.851.912-.054.021-.328.04-.609.043-1.092.009-3.541.204-4.74.378-2.205.32-3.185.66-5.275 1.836-.387.219-.819.436-.958.483l-.253.087.034-.21z"/><path d="M1769.387 5540.575c.704-.422 1.52-.837 2.058-1.044 1.409-.544 3.716-.9 6.798-1.05 1.652-.082 2.186-.094 2.186-.051 0 .064-.525.376-1.03.613a9.527 9.527 0 0 1-1.162.421c-1.246.357-2.125.485-6.248.915-1.177.123-2.265.277-2.844.402-.096.02-.003-.058.242-.206z"/></g><g fill="#008f3f"><path d="M1796.295 5541.383c-1.677-1.364-3.768-2.567-5.423-3.119-1.359-.453-1.834-.533-3.472-.583l-1.51-.046 1.217-.594c1.42-.692 1.944-.881 2.756-.994.71-.099 1.411-.007 2.196.289.658.247.801.355 2.34 1.756 1.725 1.57 2.259 2.238 2.531 3.171.14.482.158.65.067.645-.033-.002-.349-.238-.702-.525z"/><path d="M1795.974 5541.54c-.585-.218-1.621-.434-3.832-.799-2.966-.49-3.88-.73-5.04-1.327-.658-.34-1.498-.98-1.712-1.306-.133-.204-.132-.209.086-.27.122-.034.854-.06 1.627-.057 1.143.004 1.562.039 2.247.186 2.014.433 3.786 1.267 5.86 2.759 1.313.943 1.421 1.058.764.814z"/></g><path d="M1782.907 5538.24c-1.484-.467-2.72-.071-2.753-.058m2.73 5.298c.08-22.638 0-19.909 0-19.909-.244-4.83 5.056-4.706 5.459-4.175m-5.459 4.175c-.789-2.753-2.213-4.235-4.212-4.566m6.856 18.65c-1.507-.079-2.297.507-2.532.565" stroke-width=".159" stroke="#008f3f" fill="none"/></g></svg>