<svg xmlns="http://www.w3.org/2000/svg" xmlns:xlink="http://www.w3.org/1999/xlink" viewBox="0 0 117.29051 117.29051" height="125.11" width="125.11"><defs><linearGradient y2="5524.197" x2="1713.945" y1="5524.197" x1="1596.654" gradientTransform="translate(-125.129 31.282)" gradientUnits="userSpaceOnUse" id="b" xlink:href="#a"/><linearGradient id="a"><stop offset="0" stop-color="#b59078"/><stop offset="1" stop-color="#5f4738"/></linearGradient></defs><g transform="translate(-1471.526 -5496.834)"><circle cx="1530.171" cy="5555.479" r="58.645" fill="url(#b)"/><path d="M1515.835 5534.81c-1.127-.245-1.598-.48-2.479-1.239-1.43-1.232-3.059-4.417-3.059-5.98 0-.961.2-1.485.81-2.122.822-.862 1.55-1.16 2.845-1.164 2.562-.007 4.126 1.506 5.457 5.279.519 1.47.939 3.468.939 4.465v.653l-.965.168a8.988 8.988 0 0 1-3.548-.06z" fill="#ebcc81"/><path d="M1522.805 5543.005c-1.18-.806-2.15-1.163-4.73-1.742-2.51-.563-3.016-.728-4.066-1.321-1.458-.825-2.702-2.051-3.954-3.898-1.56-2.302-1.909-3.368-1.912-5.842-.003-2.228.436-3.727 1.508-5.15 1.981-2.63 5.435-3.175 8.875-1.4 1.047.54 1.798 1.255 2.66 2.533 1.304 1.932 2.188 4.034 2.685 6.39.485 2.297.439 7.002-.104 10.451l-.09.575-.872-.596zm-3.785-8.928l.725-.145-.085-.829c-.303-2.954-1.51-5.951-2.865-7.11-1.537-1.316-3.875-1.242-5.14.162-.84.932-.903 1.905-.228 3.562.71 1.748 1.972 3.397 3.016 3.943 1.014.531 3.075.719 4.577.417z" fill="#c6aa66"/><path d="M1538.946 5528.78c1.128-.245 1.598-.48 2.479-1.24 1.43-1.231 3.059-4.416 3.059-5.98 0-.96-.2-1.484-.809-2.122-.823-.861-1.55-1.159-2.846-1.163-2.562-.008-4.126 1.505-5.457 5.279-.519 1.47-.939 3.468-.939 4.465v.653l.965.167a8.988 8.988 0 0 0 3.548-.059z" fill="#ebcc81"/><path d="M1531.977 5536.975c1.18-.806 2.149-1.163 4.73-1.742 2.51-.563 3.015-.728 4.065-1.321 1.458-.825 2.703-2.051 3.954-3.898 1.56-2.302 1.909-3.368 1.912-5.842.003-2.228-.436-3.728-1.508-5.15-1.981-2.63-5.435-3.176-8.875-1.4-1.047.54-1.798 1.255-2.66 2.533-1.304 1.931-2.187 4.034-2.685 6.39-.485 2.297-.438 7.001.104 10.45l.09.576.873-.596zm3.784-8.928l-.724-.146.085-.828c.303-2.954 1.51-5.951 2.864-7.11 1.537-1.316 3.875-1.242 5.14.162.84.932.903 1.905.229 3.562-.712 1.748-1.973 3.397-3.017 3.943-1.014.53-3.075.718-4.577.417z" fill="#c6aa66"/><path d="M1539.24 5575.69c1.127-.247 1.653-.23 2.77.092 1.813.523 4.623 2.737 5.276 4.158.4.873.438 1.432.15 2.266-.388 1.127-.925 1.7-2.1 2.245-2.325 1.076-4.378.354-7.162-2.52-1.086-1.12-2.301-2.76-2.717-3.665l-.273-.593.807-.555a8.988 8.988 0 0 1 3.249-1.427z" fill="#ebcc81"/><path d="M1529.486 5571.153c1.409.24 2.439.16 5.026-.391 2.515-.536 3.044-.598 4.245-.497 1.67.14 3.312.736 5.22 1.892 2.379 1.44 3.14 2.264 4.176 4.51.933 2.024 1.16 3.57.78 5.31-.703 3.218-3.614 5.154-7.481 4.977-1.177-.054-2.158-.39-3.475-1.192-1.991-1.211-3.671-2.753-5.106-4.686-1.4-1.885-3.322-6.18-4.268-9.54l-.158-.56 1.041.177zm7.166 6.533l-.598.435.423.717c1.508 2.558 3.856 4.778 5.57 5.266 1.946.554 4.04-.49 4.604-2.293.375-1.198.025-2.108-1.28-3.332-1.375-1.292-3.21-2.264-4.386-2.325-1.143-.059-3.094.631-4.333 1.532z" fill="#c6aa66"/><path d="M1551.464 5559.23c.684.93 1.091 1.263 2.143 1.757 1.708.803 5.28.99 6.708.353.877-.393 1.274-.788 1.607-1.605.45-1.103.425-1.889-.1-3.073-1.038-2.342-3.057-3.152-7.045-2.827-1.555.126-3.55.558-4.46.965l-.596.266.24.95a8.988 8.988 0 0 0 1.503 3.214z" fill="#ebcc81"/><path d="M1541.138 5556.212c1.218.748 1.94 1.488 3.521 3.607 1.539 2.062 1.895 2.457 2.865 3.172 1.348.995 2.976 1.63 5.172 2.02 2.739.484 3.854.368 6.114-.64 2.036-.906 3.225-1.918 4.087-3.478 1.592-2.882.68-6.257-2.344-8.673-.92-.736-1.88-1.13-3.4-1.396-2.294-.401-4.574-.35-6.928.158-2.295.494-6.571 2.457-9.499 4.36l-.488.317.9.553zm9.696-.189l-.163-.72.79-.26c2.821-.93 6.05-1.05 7.66-.288 1.829.866 2.716 3.031 1.95 4.76-.507 1.147-1.37 1.6-3.158 1.661-1.886.064-3.907-.414-4.831-1.144-.898-.71-1.91-2.514-2.248-4.009z" fill="#c6aa66"/><path d="M1502.398 5553.205c-1.127-.246-1.598-.481-2.479-1.24-1.43-1.232-3.059-4.417-3.059-5.98 0-.96.2-1.484.809-2.122.823-.862 1.55-1.16 2.846-1.163 2.562-.008 4.126 1.505 5.457 5.278.519 1.471.939 3.469.939 4.465v.653l-.965.168a8.988 8.988 0 0 1-3.548-.06z" fill="#ebcc81"/><path d="M1509.367 5561.4c-1.18-.807-2.149-1.164-4.73-1.743-2.51-.563-3.015-.727-4.065-1.32-1.458-.825-2.703-2.052-3.954-3.899-1.56-2.302-1.909-3.368-1.912-5.842-.003-2.228.436-3.727 1.508-5.15 1.981-2.63 5.435-3.175 8.875-1.4 1.047.54 1.798 1.255 2.66 2.533 1.304 1.932 2.187 4.035 2.685 6.39.485 2.298.438 7.002-.104 10.451l-.09.575-.873-.596zm-3.784-8.929l.724-.145-.085-.828c-.303-2.955-1.51-5.952-2.864-7.11-1.537-1.316-3.875-1.243-5.14.161-.84.932-.903 1.905-.229 3.562.712 1.748 1.973 3.397 3.017 3.944 1.014.53 3.075.718 4.577.416z" fill="#c6aa66"/><path d="M1528.784 5561.434c1.128-.245 1.599-.48 2.48-1.24 1.43-1.232 3.058-4.416 3.058-5.98 0-.96-.2-1.484-.809-2.122-.823-.862-1.55-1.159-2.845-1.163-2.562-.008-4.127 1.505-5.457 5.278-.52 1.471-.94 3.469-.94 4.466v.652l.965.168a8.988 8.988 0 0 0 3.548-.06z" fill="#ebcc81"/><path d="M1521.815 5569.629c1.18-.806 2.15-1.164 4.73-1.743 2.51-.563 3.016-.727 4.065-1.32 1.459-.825 2.703-2.052 3.954-3.898 1.56-2.302 1.91-3.368 1.912-5.842.003-2.229-.435-3.728-1.508-5.151-1.981-2.63-5.434-3.175-8.875-1.4-1.047.54-1.798 1.256-2.66 2.534-1.304 1.931-2.187 4.034-2.684 6.39-.486 2.297-.44 7.001.103 10.45l.09.576.873-.596zm3.784-8.928l-.724-.146.085-.828c.303-2.954 1.51-5.952 2.864-7.11 1.537-1.316 3.875-1.242 5.141.162.84.932.902 1.905.228 3.562-.711 1.748-1.973 3.397-3.017 3.943-1.013.53-3.074.718-4.577.417z" fill="#c6aa66"/><path d="M1512.092 5578.538c-.285 1.119-.537 1.58-1.327 2.434-1.282 1.385-4.523 2.899-6.086 2.843-.96-.034-1.476-.252-2.091-.884-.832-.854-1.103-1.592-1.061-2.886.083-2.56 1.651-4.07 5.47-5.265 1.489-.466 3.5-.814 4.496-.778l.652.023.133.97a8.988 8.988 0 0 1-.186 3.543z" fill="#ebcc81"/><path d="M1520.53 5571.867c-.847 1.15-1.238 2.106-1.91 4.664-.652 2.488-.834 2.988-1.465 4.016-.876 1.428-2.146 2.627-4.036 3.812-2.356 1.477-3.434 1.787-5.907 1.702-2.227-.077-3.71-.569-5.093-1.691-2.558-2.074-2.979-5.545-1.082-8.92.577-1.026 1.319-1.752 2.627-2.568 1.977-1.233 4.11-2.041 6.481-2.454 2.314-.403 7.013-.188 10.441.477l.572.111-.627.85zm-9.057 3.462l-.12-.729-.83.056c-2.963.197-6.002 1.296-7.208 2.608-1.37 1.489-1.38 3.828-.022 5.143.902.873 1.872.97 3.552.355 1.772-.648 3.465-1.85 4.048-2.873.567-.994.828-3.047.58-4.56z" fill="#c6aa66"/><path d="M1555.595 5541.336c1.111.313 1.638.326 2.77.068 1.842-.417 4.774-2.466 5.507-3.847.45-.849.52-1.405.281-2.254-.323-1.147-.826-1.75-1.968-2.362-2.26-1.208-4.35-.605-7.295 2.103-1.148 1.056-2.456 2.624-2.923 3.504l-.306.576.773.6a8.988 8.988 0 0 0 3.161 1.612z" fill="#ebcc81"/><path d="M1545.597 5545.306c1.42-.159 2.444-.02 4.994.68 2.481.679 3.005.771 4.21.74 1.675-.045 3.35-.545 5.32-1.59 2.458-1.3 3.266-2.079 4.43-4.262 1.047-1.967 1.362-3.497 1.083-5.257-.517-3.252-3.312-5.353-7.182-5.398-1.179-.014-2.178.265-3.539.99-2.057 1.095-3.823 2.537-5.367 4.384-1.506 1.802-3.67 5.98-4.81 9.28l-.19.55 1.05-.117zm7.53-6.11l-.572-.47.463-.69c1.653-2.468 4.125-4.549 5.864-4.937 1.975-.442 4.005.72 4.465 2.554.305 1.217-.097 2.105-1.47 3.252-1.447 1.21-3.335 2.076-4.513 2.069-1.144-.007-3.052-.808-4.238-1.779z" fill="#c6aa66"/></g></svg>