<svg xmlns="http://www.w3.org/2000/svg" xmlns:xlink="http://www.w3.org/1999/xlink" viewBox="0 0 117.29051 117.29051" height="125.11" width="125.11"><defs><linearGradient id="a"><stop offset="0" stop-color="#b59078"/><stop offset="1" stop-color="#5f4738"/></linearGradient><linearGradient y2="5524.197" x2="1713.945" y1="5524.197" x1="1596.654" gradientTransform="translate(7.868 28.884)" gradientUnits="userSpaceOnUse" id="b" xlink:href="#a"/></defs><g transform="translate(-1604.522 -5494.435)"><circle cx="1663.167" cy="5553.081" r="58.645" fill="url(#b)"/><path d="M1630.47 5513.807c9.142 29.4 4.68 54.914 1.915 77.265 29.981-5.853 38.69 5.312 62.716 1.16-4-10.108-4.171-68.293.764-79.252-12.297 7.508-54.375 5.231-65.395.827z" fill="#5f4738"/><path d="M1643.384 5529.318c5.53 17.788 2.831 33.226 1.158 46.75 18.14-3.542 23.41 3.213 37.947.702-2.42-6.117-2.524-41.322.462-47.953-7.44 4.543-32.9 3.166-39.567.501z" fill="#fff"/><path d="M1677.795 5539.722c-.187-.187-.373-.187-.747-.187-.374.187-8.22 1.495-11.958 5.231-4.67 4.671-2.99 7.847-1.494 9.342.072.073.162.13.24.198a34.23 34.23 0 0 0-1.014 2.057c-.525-1.705-1.396-3.387-2.543-5.02.576-.822.865-1.644.7-2.466-.186-1.308-1.12-2.616-2.802-3.924-2.99-2.242-8.781-2.616-8.968-2.616-.373 0-.56.187-.747.374-.187.374-.187.56-.187.934 0 .187 1.681 5.605 4.67 8.034 1.496 1.121 2.803 1.682 4.111 1.682.688 0 1.366-.238 1.968-.66 1.694 2.282 2.45 4.686 2.505 7.096a20.967 20.967 0 0 0-.883 4.96h-2.655c-.56 0-.935.375-.935.935s.374.934.935.934h7.286c.56 0 .935-.373.935-.934 0-.56-.374-.934-.935-.934h-2.765c.082-1.508.351-3.072.843-4.671h.054c0-.045-.006-.092-.008-.136.484-1.538 1.17-3.102 2.056-4.673a4.87 4.87 0 0 0 1.689.325c1.868 0 3.736-1.121 5.605-3.176 3.736-3.737 5.231-11.584 5.231-11.958.187-.187 0-.56-.187-.747zm-23.728 10.463c-1.682-1.495-2.99-4.11-3.55-5.792 1.868.186 4.858.747 6.352 2.055 1.308 1.12 1.869 2.055 2.056 2.802.186.56 0 .935-.374 1.495-1.121 1.308-2.616.934-4.484-.56zm17.563.934c-2.616 2.802-4.858 3.363-6.726 1.494-1.682-1.681-1.308-3.923 1.494-6.726 2.616-2.428 7.287-3.736 9.716-4.297-.56 2.242-2.055 7.1-4.484 9.529z" fill="#007031"/></g></svg>