<?xml version="1.0" encoding="UTF-8" standalone="no"?>
<!-- Created with Inkscape (http://www.inkscape.org/) -->

<svg
   xmlns:dc="http://purl.org/dc/elements/1.1/"
   xmlns:cc="http://creativecommons.org/ns#"
   xmlns:rdf="http://www.w3.org/1999/02/22-rdf-syntax-ns#"
   xmlns:svg="http://www.w3.org/2000/svg"
   xmlns="http://www.w3.org/2000/svg"
   xmlns:xlink="http://www.w3.org/1999/xlink"
   xmlns:sodipodi="http://sodipodi.sourceforge.net/DTD/sodipodi-0.dtd"
   xmlns:inkscape="http://www.inkscape.org/namespaces/inkscape"
   width="352.82462"
   height="353.15546"
   viewBox="0 0 352.82462 353.15546"
   id="svg4335"
   version="1.1"
   inkscape:version="0.91 r13725"
   sodipodi:docname="logo.svg">
  <defs
     id="defs4337">
    <linearGradient
       inkscape:collect="always"
       xlink:href="#linearGradient4788"
       id="linearGradient5423"
       x1="-665.65741"
       y1="1098.042"
       x2="-842.0697"
       y2="1097.9946"
       gradientUnits="userSpaceOnUse" />
    <linearGradient
       inkscape:collect="always"
       id="linearGradient4788">
      <stop
         style="stop-color:#b59078;stop-opacity:1"
         offset="0"
         id="stop4790" />
      <stop
         style="stop-color:#5f4738;stop-opacity:1"
         offset="1"
         id="stop4792" />
    </linearGradient>
  </defs>
  <sodipodi:namedview
     id="base"
     pagecolor="#ffffff"
     bordercolor="#666666"
     borderopacity="1.0"
     inkscape:pageopacity="0.0"
     inkscape:pageshadow="2"
     inkscape:zoom="0.7"
     inkscape:cx="140.31734"
     inkscape:cy="255.70508"
     inkscape:document-units="px"
     inkscape:current-layer="layer1"
     showgrid="false"
     inkscape:window-width="1301"
     inkscape:window-height="744"
     inkscape:window-x="65"
     inkscape:window-y="24"
     inkscape:window-maximized="1"
     fit-margin-top="0"
     fit-margin-left="0"
     fit-margin-right="0"
     fit-margin-bottom="0"
     units="px"
     showborder="false"
     inkscape:snap-bbox="true"
     inkscape:snap-bbox-midpoints="true"
     inkscape:snap-bbox-edge-midpoints="true"
     inkscape:bbox-nodes="true"
     inkscape:bbox-paths="true"
     inkscape:snap-smooth-nodes="true"
     inkscape:object-nodes="true"
     inkscape:snap-intersection-paths="true"
     inkscape:object-paths="true"
     inkscape:snap-midpoints="true" />
  <metadata
     id="metadata4340">
    <rdf:RDF>
      <cc:Work
         rdf:about="">
        <dc:format>image/svg+xml</dc:format>
        <dc:type
           rdf:resource="http://purl.org/dc/dcmitype/StillImage" />
        <dc:title></dc:title>
      </cc:Work>
    </rdf:RDF>
  </metadata>
  <g
     inkscape:label="Layer 1"
     inkscape:groupmode="layer"
     id="layer1"
     transform="translate(367.18971,9.7259436)">
    <g
       transform="translate(651.29228,-931.30828)"
       id="g5449">
      <circle
         r="176.41229"
         cy="1097.9946"
         cx="-842.0697"
         id="path5121-9-8-1"
         style="opacity:1;fill:#5f4738;fill-opacity:1;stroke:none;stroke-width:0.83759838;stroke-linecap:round;stroke-linejoin:round;stroke-miterlimit:2;stroke-dasharray:none;stroke-dashoffset:0;stroke-opacity:1" />
      <g
         transform="translate(-455.62282,690.97776)"
         id="g4228-7-5-1">
        <path
           style="opacity:1;fill:#3f2e2a;fill-opacity:1;fill-rule:nonzero;stroke:none;stroke-width:1;stroke-linecap:round;stroke-miterlimit:2;stroke-dasharray:none;stroke-opacity:1"
           d="m -446.1415,451.83332 c -3.77389,0 -6.8125,3.03666 -6.8125,6.81055 l 0,4.64062 c 0,3.77389 3.03861,6.8125 6.8125,6.8125 l 2.85937,0 17.4082,62.34961 70.64845,0.16797 16.47656,-62.51758 2.9082,0 c 3.77389,0 6.8125,-3.03861 6.8125,-6.8125 l 0,-4.64062 c 0,-3.77389 -3.03861,-6.81055 -6.8125,-6.81055 l -110.30078,0 z"
           id="rect4206-7-9-0"
           inkscape:connector-curvature="0" />
        <g
           id="g4250-6-7-3"
           transform="translate(-333.66123,-144.79147)">
          <path
             transform="translate(120.65116,63.586896)"
             inkscape:connector-curvature="0"
             id="path4230-7-5-4"
             d="m -164.18649,428.68448 c -1.05694,-1.4567 -1.4143,-2.12556 -1.83657,-3.4375 -1.10431,-3.43091 -1.56608,-6.57929 -1.56608,-10.67756 0,-6.76094 1.57973,-13.28843 4.8976,-20.23705 0.93428,-1.95667 1.26089,-2.45913 2.07864,-3.19785 2.614,-2.36138 6.24304,-4.12986 15.02138,-7.32012 5.9495,-2.16219 5.94366,-2.16085 9.43095,-2.15923 2.51617,10e-4 3.18112,0.0627 4.55357,0.42145 0.88393,0.23104 1.88342,0.53398 2.22108,0.67319 l 0.61393,0.25311 -2.46667,1.4187 c -16.23512,9.33752 -27.95094,23.54751 -30.88958,37.46564 -0.51126,2.42144 -0.90233,6.52491 -0.73933,7.75761 0.0617,0.46652 0.0854,0.84822 0.0528,0.84822 -0.0327,0 -0.64993,-0.81388 -1.37169,-1.80861 z"
             style="opacity:1;fill:#008f3f;fill-opacity:1;stroke:none;stroke-width:4;stroke-linecap:round;stroke-linejoin:round;stroke-miterlimit:4;stroke-dasharray:none;stroke-dashoffset:0;stroke-opacity:1" />
          <path
             transform="translate(120.65116,63.586896)"
             inkscape:connector-curvature="0"
             id="path4232-3-3-0"
             d="m -161.52849,432.28005 c -0.46605,-0.31009 -0.47285,-5.88554 -0.0105,-8.60783 1.55625,-9.16287 6.58066,-18.01199 14.9972,-26.41347 5.20942,-5.20009 11.04924,-9.55671 17.25487,-12.87246 l 1.73061,-0.92469 1.1745,0.57917 c 2.27373,1.12123 7.88902,4.93717 7.88902,5.36109 0,0.0802 -0.3803,0.20279 -0.84511,0.27249 -1.26814,0.19017 -2.94022,0.87528 -4.3293,1.77388 -3.78174,2.4464 -6.43206,6.98906 -7.6898,13.1804 -0.20497,1.009 -0.4508,1.86228 -0.54628,1.89618 -0.4078,0.14478 -3.39332,2.19692 -4.62522,3.17922 -0.73661,0.58735 -2.36787,2.03434 -3.62503,3.21552 -2.22742,2.09281 -3.09043,2.98423 -10.9613,11.32212 -3.95542,4.19012 -6.38848,6.46292 -7.97585,7.4505 -1.0176,0.63309 -2.01013,0.87244 -2.43782,0.58788 z"
             style="opacity:1;fill:#008f3f;fill-opacity:1;stroke:none;stroke-width:4;stroke-linecap:round;stroke-linejoin:round;stroke-miterlimit:4;stroke-dasharray:none;stroke-dashoffset:0;stroke-opacity:1" />
          <path
             transform="translate(120.65116,63.586896)"
             inkscape:connector-curvature="0"
             id="path4234-6-8-3"
             d="m -128.67135,382.06363 c -0.44196,-0.19604 -1.56696,-0.56664 -2.5,-0.82355 -1.51814,-0.41801 -2.02486,-0.46837 -4.82143,-0.47915 -2.47073,-0.01 -3.40784,0.0573 -4.47593,0.31936 l -1.35094,0.3314 -1.39749,-0.58177 c -1.76868,-0.73631 -2.95421,-1.80271 -2.95421,-2.65737 0,-1.27229 1.43264,-3.10658 3.84351,-4.92105 1.19247,-0.89748 1.4743,-1.0228 3.06521,-1.363 0.9636,-0.20606 2.35932,-0.38077 3.1016,-0.38824 1.1501,-0.0116 1.52291,0.0675 2.52203,0.53505 0.64484,0.30176 1.49368,0.83888 1.88633,1.19361 0.39264,0.35473 0.75865,0.64496 0.81335,0.64496 0.0547,0 0.27179,-0.46062 0.48243,-1.02359 0.60196,-1.60889 1.87906,-3.95483 2.86697,-5.26645 1.60003,-2.1243 3.75477,-3.68587 6.21786,-4.50615 1.20169,-0.4002 1.66026,-0.45381 3.8823,-0.45381 2.84079,0 4.2867,0.21036 4.77034,0.694 0.32054,0.32053 0.31977,0.34894 -0.0276,1.0232 -0.19652,0.38144 -0.6456,0.97044 -0.99796,1.30891 -0.69991,0.67231 -0.77643,0.92461 -0.38016,1.25349 0.20816,0.17276 0.5885,0.10533 1.89348,-0.33566 6.73841,-2.27714 15.105796,-2.03321 24.245818,0.70682 3.295583,0.98797 6.065187,2.10635 9.314503,3.76128 3.662939,1.86558 6.860684,4.25109 6.364147,4.74763 -0.06204,0.062 -1.6198,-0.18114 -3.461688,-0.54039 -9.13727,-1.7822 -17.245405,-2.03519 -26.20603,-0.81771 -8.15511,1.10805 -17.55643,3.96109 -24.38638,7.4006 -0.67634,0.34059 -1.29198,0.61359 -1.36809,0.60665 -0.0761,-0.007 -0.49999,-0.17302 -0.94196,-0.36907 z"
             style="opacity:1;fill:#008f3f;fill-opacity:1;stroke:none;stroke-width:4;stroke-linecap:round;stroke-linejoin:round;stroke-miterlimit:4;stroke-dasharray:none;stroke-dashoffset:0;stroke-opacity:1" />
          <path
             transform="translate(120.65116,63.586896)"
             inkscape:connector-curvature="0"
             id="path4236-5-8-9"
             d="m -118.66017,387.99731 c -1.63408,-1.30303 -4.45701,-3.18897 -6.31372,-4.21805 l -1.60664,-0.89047 2.00474,-0.9145 c 15.55268,-7.09468 32.466909,-9.15641 48.467483,-5.90785 1.386611,0.28152 2.579854,0.57159 2.65165,0.64461 0.07179,0.073 -0.570322,0.79246 -1.426924,1.59875 -2.004918,1.88718 -3.723871,2.57457 -6.523762,2.60877 -4.464281,0.0545 -10.871287,-0.36915 -12.753176,-0.84333 -4.175253,-1.05206 -8.139101,-1.21197 -11.364211,-0.45845 -0.62504,0.14603 -2.16423,0.75578 -3.42044,1.355 -2.55899,1.22065 -5.12992,3.39837 -7.11271,6.02485 -0.64093,0.84901 -1.23373,1.62476 -1.31733,1.72389 -0.0836,0.0991 -0.66183,-0.22632 -1.28496,-0.72322 z"
             style="opacity:1;fill:#008f3f;fill-opacity:1;stroke:none;stroke-width:4;stroke-linecap:round;stroke-linejoin:round;stroke-miterlimit:4;stroke-dasharray:none;stroke-dashoffset:0;stroke-opacity:1" />
          <path
             transform="translate(120.65116,63.586896)"
             inkscape:connector-curvature="0"
             id="path4238-6-3-1"
             d="m -73.203927,462.59711 c -0.551591,-2.14437 -1.367564,-4.44548 -3.156636,-8.90197 -6.718506,-16.7355 -16.720076,-35.06631 -26.277757,-48.16169 -3.66636,-5.02344 -6.39986,-8.2598 -10.40674,-12.3212 l -3.61264,-3.6618 0.45258,-0.88296 c 0.24893,-0.48562 1.53219,-1.96869 2.8517,-3.29571 2.71459,-2.73003 5.20449,-4.22133 8.23889,-4.93459 2.36382,-0.55564 7.508234,-0.36844 10.302203,0.37488 1.099913,0.29263 2.038963,0.57117 2.086779,0.61899 0.04781,0.0478 -0.425956,1.19199 -1.052824,2.54262 -0.626869,1.35063 -1.139761,2.5427 -1.139761,2.64905 0,0.27921 5.313945,1.87613 9.722718,2.92184 7.731137,1.83372 12.242496,3.77471 16.354693,7.03652 0.302261,0.23976 0.605723,1.22876 0.947018,3.08638 0.790578,4.30304 0.67134,5.43609 -0.693318,6.58816 l -0.642891,0.54273 0.596525,0.84623 c 0.328087,0.46542 1.756766,2.06475 3.174841,3.55407 2.68387,2.81871 4.095909,5.10715 4.601159,7.45693 0.218701,1.01711 0.189169,1.1086 -0.563124,1.74457 -1.430786,1.20955 -2.84134,1.67855 -4.619186,1.53584 -1.026554,-0.0824 -1.674615,-0.0262 -1.825459,0.15833 -0.150763,0.18442 0.525014,2.8402 1.90166,7.47349 l 2.135531,7.18741 -0.401872,1.05229 c -0.656185,1.71819 -1.426623,2.18137 -2.972235,1.78685 l -0.694479,-0.17726 -0.0026,4.99244 c -0.0054,10.33405 -1.030681,16.04234 -3.289417,18.31382 -1.238521,1.24551 -1.669437,1.21852 -2.015351,-0.12626 l -5e-6,0 z"
             style="opacity:1;fill:#008f3f;fill-opacity:1;stroke:none;stroke-width:4;stroke-linecap:round;stroke-linejoin:round;stroke-miterlimit:4;stroke-dasharray:none;stroke-dashoffset:0;stroke-opacity:1" />
          <path
             transform="translate(120.65116,63.586896)"
             inkscape:connector-curvature="0"
             id="path4240-3-1-9"
             d="m -78.217225,461.5159 c -10.953516,-5.53496 -20.027207,-13.40418 -27.913225,-24.20793 -2.18556,-2.99418 -4.94352,-7.31352 -6.58868,-10.31874 -1.343,-2.45326 -1.56113,-2.36336 -3.37227,1.38974 -2.23571,4.63292 -3.94267,6.11751 -7.23727,6.29444 l -1.51523,0.0814 -1.42762,-2.77426 c -1.65171,-3.20973 -3.02997,-7.11132 -3.91892,-11.09374 -0.85653,-3.83719 -1.10042,-11.47295 -0.48031,-15.03775 1.36646,-7.85525 5.11153,-13.3443 10.17071,-14.90692 2.91919,-0.90165 3.08088,-0.84851 5.94711,1.95447 11.08096,10.8364 23.88708,30.84165 33.869498,52.90966 3.06949,6.78569 6.725964,16.23057 6.725964,17.37356 0,0.43497 -0.467685,0.25228 -4.259757,-1.6639 z"
             style="opacity:1;fill:#008f3f;fill-opacity:1;stroke:none;stroke-width:4;stroke-linecap:round;stroke-linejoin:round;stroke-miterlimit:4;stroke-dasharray:none;stroke-dashoffset:0;stroke-opacity:1" />
        </g>
        <g
           id="g4169-9-8-6"
           transform="translate(-334.0795,-144.9635)"
           style="stroke:none">
          <path
             transform="translate(120.65116,63.586896)"
             inkscape:connector-curvature="0"
             id="path4165-4-9-9"
             d="m -285.41299,462.44218 c -0.45681,-1.29725 -0.387,-5.68097 0.13773,-8.64943 1.04,-5.88332 2.91153,-12.49456 7.72085,-27.27412 1.6497,-5.0697 3.25453,-10.1836 3.56628,-11.36421 0.45271,-1.71443 0.74027,-2.31181 1.42837,-2.96733 0.47386,-0.45141 0.99552,-0.82111 1.15925,-0.82155 0.51716,-0.002 3.28318,-1.96962 3.61946,-2.57551 0.69653,-1.25498 0.19408,-2.81436 -1.81316,-5.62727 -0.6415,-0.89897 -1.09673,-1.74714 -1.01164,-1.88482 0.31319,-0.50675 2.81991,-1.11656 16.66631,-4.05442 2.6339,-0.55885 4.88198,-1.10916 4.99574,-1.22292 0.11376,-0.11376 0.17477,-1.61334 0.13558,-3.33241 l -0.0712,-3.12558 -2.77792,-0.56167 c -1.52786,-0.30892 -4.54725,-0.90502 -6.70977,-1.32467 -5.12387,-0.99433 -7.22246,-1.77714 -8.90408,-3.32136 -0.71842,-0.65972 -1.5086,-1.54749 -1.75597,-1.97283 -0.4425,-0.76088 -0.44046,-0.77942 0.12627,-1.15001 0.31682,-0.20717 1.14424,-0.62192 1.83872,-0.92169 0.69448,-0.29976 5.63791,-2.68028 10.98541,-5.29005 10.06004,-4.90966 13.92006,-6.57895 17.79641,-7.69618 6.50336,-1.87439 12.4229,-1.86607 18.18763,0.0256 2.82609,0.92735 7.44888,3.15074 9.30278,4.4743 2.43708,1.73991 6.44623,6.15923 5.95776,6.56729 -0.0581,0.0485 -1.86706,0.74476 -4.01995,1.54721 -17.82371,6.64341 -31.7102,16.00111 -43.20471,29.11438 -7.71293,8.79913 -13.61048,17.95391 -22.32705,34.65833 -9.68218,18.55489 -10.29041,19.693 -10.52577,19.69589 -0.0934,10e-4 -0.31988,-0.42408 -0.50329,-0.94494 z"
             style="opacity:1;fill:#36a440;fill-opacity:1;stroke:none;stroke-width:0.25253814;stroke-linecap:round;stroke-linejoin:round;stroke-miterlimit:0;stroke-dasharray:none;stroke-dashoffset:0;stroke-opacity:1" />
          <path
             transform="translate(120.65116,63.586896)"
             inkscape:connector-curvature="0"
             id="path4167-8-6-3"
             d="m -282.30339,461.25001 c 0,-0.57143 13.3144,-25.89641 16.17338,-30.76295 12.44247,-21.17954 26.47185,-34.93234 45.22001,-44.3285 4.44816,-2.22932 15.88175,-6.93675 16.84825,-6.93675 0.72,0 4.38849,5.28311 5.92762,8.53657 1.82769,3.86344 3.06125,8.41353 3.97963,14.67922 0.42895,2.92657 1.12453,7.1849 1.54572,9.46296 l 0.76582,4.14194 -2.64458,3.53391 -2.64458,3.53391 -1.39097,-0.82166 c -1.57389,-0.92972 -3.60752,-4.39093 -4.45669,-7.58524 -0.31386,-1.18061 -0.73235,-2.14575 -0.92999,-2.14475 -0.19763,10e-4 -0.76707,1.64881 -1.2654,3.6618 -1.00165,4.04614 -5.19605,12.85373 -6.51854,13.68794 -2.15394,1.35867 -4.8255,-1.82724 -12.75024,-15.20499 -2.67408,-4.51412 -5.08612,-8.20749 -5.3601,-8.20749 -0.27398,0 -0.76101,0.57692 -1.08229,1.28205 -0.45404,0.99653 -0.3926,2.9363 0.27592,8.71017 0.81213,7.01417 0.81176,7.46343 -0.007,8.06186 -1.75066,1.28009 -3.91913,0.77187 -5.91619,-1.38656 -1.02809,-1.11117 -2.12248,-2.0203 -2.43199,-2.0203 -0.40064,0 -0.47292,1.8778 -0.25092,6.51893 l 0.31182,6.51894 -2.22425,2.05024 c -3.33647,3.07545 -5.37312,3.32428 -6.3424,0.77489 -0.4522,-1.18937 -0.61974,-1.10386 -9.18649,4.68819 -11.22445,7.58895 -14.99566,10.41599 -20.86158,15.63861 -2.6314,2.34282 -4.78436,4.1055 -4.78436,3.91706 z"
             style="opacity:1;fill:#36a440;fill-opacity:1;stroke:none;stroke-width:0.50507629;stroke-linecap:round;stroke-linejoin:round;stroke-miterlimit:0;stroke-dasharray:none;stroke-dashoffset:0;stroke-opacity:1" />
        </g>
        <g
           id="g4189-1-4-3"
           transform="translate(-10.101525,-12.121831)">
          <path
             inkscape:connector-curvature="0"
             id="path4173-2-3-8"
             d="m -474.42901,447.58483 c 0.56004,-3.45112 4.82658,-7.44692 13.22059,-12.38166 14.89223,-8.75496 16.92336,-9.66034 24.15766,-10.7683 6.02945,-0.92343 12.11787,-0.62022 18.92857,0.94266 5.31968,1.22073 18.61003,5.47241 17.9385,5.73865 -0.33939,0.13456 -2.0635,0.25621 -3.83136,0.27035 -6.87202,0.0549 -22.27772,1.28203 -29.82143,2.37533 -13.87475,2.01086 -20.03913,4.15741 -33.18465,11.5555 -2.43906,1.37266 -5.15161,2.74004 -6.02789,3.03862 l -1.59322,0.54287 0.21323,-1.31402 z"
             style="opacity:1;fill:#36a440;fill-opacity:1;stroke:none;stroke-width:1;stroke-linecap:round;stroke-linejoin:round;stroke-miterlimit:0;stroke-dasharray:none;stroke-dashoffset:0;stroke-opacity:1" />
          <path
             inkscape:connector-curvature="0"
             id="path4175-9-3-0"
             d="m -465.80076,445.6769 c 4.42485,-2.66098 9.55744,-5.26716 12.947,-6.57411 8.86066,-3.41652 23.37767,-5.65963 42.76728,-6.60822 10.3918,-0.5084 13.75011,-0.58587 13.75005,-0.3172 -9e-5,0.4025 -3.30031,2.36721 -6.47639,3.85557 -1.68707,0.79059 -4.9781,1.98429 -7.31339,2.65267 -7.83968,2.24378 -13.36425,3.05288 -39.30536,5.75642 -7.40318,0.77154 -14.25053,1.73869 -17.89626,2.52773 -0.59957,0.12977 -0.0136,-0.36637 1.52707,-1.29286 z"
             style="opacity:1;fill:#36a440;fill-opacity:1;stroke:none;stroke-width:1;stroke-linecap:round;stroke-linejoin:round;stroke-miterlimit:0;stroke-dasharray:none;stroke-dashoffset:0;stroke-opacity:1" />
        </g>
        <g
           id="g4185-3-3-5"
           transform="translate(-10.101525,-12.121831)">
          <path
             inkscape:connector-curvature="0"
             id="path4181-9-8-6"
             d="m -296.51645,450.75479 c -10.55086,-8.58057 -23.70635,-16.14618 -34.11428,-19.61886 -8.54909,-2.85245 -11.54092,-3.35493 -21.84806,-3.66935 l -9.49532,-0.28965 7.65688,-3.7346 c 8.93479,-4.3579 12.22837,-5.54665 17.33572,-6.25702 4.46464,-0.62098 8.87903,-0.0399 13.8173,1.81889 4.13614,1.55683 5.04009,2.23508 14.72686,11.04968 10.8486,9.87182 14.20383,14.07696 15.91835,19.95055 0.88365,3.02726 0.99371,4.08509 0.42197,4.05582 -0.20835,-0.0107 -2.19709,-1.49812 -4.41942,-3.30546 z"
             style="opacity:1;fill:#008f3f;fill-opacity:1;stroke:none;stroke-width:1;stroke-linecap:round;stroke-linejoin:round;stroke-miterlimit:0;stroke-dasharray:none;stroke-dashoffset:0;stroke-opacity:1" />
          <path
             inkscape:connector-curvature="0"
             id="path4183-0-6-6"
             d="m -298.53676,451.74252 c -3.67965,-1.36731 -10.19874,-2.72595 -24.10453,-5.02362 -18.66256,-3.08363 -24.41368,-4.5985 -31.7064,-8.35165 -4.1412,-2.13123 -9.42601,-6.16239 -10.77206,-8.21673 -0.83976,-1.28163 -0.83085,-1.30958 0.53968,-1.69273 0.76645,-0.21427 5.37102,-0.37642 10.23238,-0.36033 7.19141,0.0238 9.82729,0.2417 14.14214,1.1691 12.66786,2.72276 23.81702,7.97056 36.87057,17.35465 8.2578,5.93647 8.93387,6.65806 4.79822,5.12131 z"
             style="opacity:1;fill:#008f3f;fill-opacity:1;stroke:none;stroke-width:1;stroke-linecap:round;stroke-linejoin:round;stroke-miterlimit:0;stroke-dasharray:none;stroke-dashoffset:0;stroke-opacity:1" />
        </g>
        <g
           id="g4221-8-0-4"
           transform="translate(-10.101525,-12.121831)"
           style="stroke:#008f3f;stroke-opacity:1">
          <g
             id="g4201-8-4-0"
             style="stroke:#008f3f;stroke-opacity:1">
            <path
               sodipodi:nodetypes="cc"
               style="fill:none;fill-rule:evenodd;stroke:#008f3f;stroke-width:1px;stroke-linecap:butt;stroke-linejoin:miter;stroke-opacity:1"
               d="m -380.74251,430.98317 c -9.34023,-2.9393 -17.11919,-0.44658 -17.31966,-0.36305"
               id="path4195-5-8-0"
               inkscape:connector-curvature="0" />
            <path
               sodipodi:nodetypes="ccc"
               style="fill:none;fill-rule:evenodd;stroke:#008f3f;stroke-width:1px;stroke-linecap:butt;stroke-linejoin:miter;stroke-opacity:1"
               d="m -380.88958,463.95515 c 0.50508,-142.43151 0,-125.25891 0,-125.25891 -1.53053,-30.38621 31.80969,-29.60643 34.34519,-26.26397"
               id="path4197-0-8-4"
               inkscape:connector-curvature="0" />
            <path
               sodipodi:nodetypes="cc"
               style="fill:none;fill-rule:evenodd;stroke:#008f3f;stroke-width:1px;stroke-linecap:butt;stroke-linejoin:miter;stroke-opacity:1"
               d="m -380.88958,338.69624 c -4.95991,-17.32257 -13.92046,-26.64385 -26.49898,-28.7292"
               id="path4199-9-8-6"
               inkscape:connector-curvature="0" />
          </g>
          <path
             sodipodi:nodetypes="cc"
             style="fill:none;fill-rule:evenodd;stroke:#008f3f;stroke-width:1px;stroke-linecap:butt;stroke-linejoin:miter;stroke-opacity:1"
             d="m -364.25369,427.30551 c -9.48281,-0.4974 -14.44856,3.18739 -15.9307,3.55129"
             id="path4195-1-6-9-2"
             inkscape:connector-curvature="0" />
        </g>
      </g>
      <path
         inkscape:connector-curvature="0"
         id="path5415"
         d="m -845.83562,1249.4737 0,-25.2645 17.65107,-0.4026 17.65107,-0.4027 6.66453,-25.092 c 10.46604,-39.4048 9.73862,-37.2796 12.76009,-37.2796 6.88694,0 9.77017,-10.4022 4.37168,-15.7722 -2.68574,-2.6716 -4.80476,-2.8676 -30.99066,-2.8676 l -28.1078,0 0,-15.7218 c 0,-14.076 0.29182,-15.8771 2.7881,-17.2059 4.6858,-2.4946 9.86858,-1.6685 13.74902,2.1915 6.13396,6.1017 17.71833,10.3337 38.93693,14.2246 11.08752,2.0331 23.24954,4.6095 27.02674,5.7253 4.43526,1.3101 6.86761,1.498 6.86761,0.5304 0,-4.3341 -5.82687,-12.2913 -16.38172,-22.371 -17.25694,-16.4802 -25.87998,-18.1254 -45.80779,-8.7405 -5.03859,2.373 -12.07995,4.4938 -15.64747,4.713 -3.56753,0.2192 -7.64517,0.8914 -9.0614,1.4939 -2.44939,1.0419 -2.55485,-1.4257 -2.16214,-50.5931 0.3959,-49.5684 0.53453,-51.8543 3.38007,-55.7344 4.08794,-5.5741 14.33289,-10.4982 21.84243,-10.4982 7.77305,0 7.92417,1.8364 0.35555,4.32112 -8.21418,2.69663 -12.35154,7.07648 -14.96999,15.84718 -2.83165,9.485 -2.89347,18.5805 -0.17033,25.0636 3.56724,8.4925 5.42185,7.8901 20.64805,-6.7073 l 14.01125,-13.4326 0.91128,10.1399 c 0.95057,10.5768 4.32994,19.2536 7.49879,19.2536 2.41431,0 6.00099,-2.8919 7.78894,-6.2801 1.27049,-2.4077 1.93768,-1.9482 6.24543,4.3015 7.55567,10.9616 16.92489,20.2478 25.90227,25.6725 12.92484,7.81 14.82321,6.7326 16.2061,-9.1982 0.45198,-5.2068 1.60677,-9.6613 2.67487,-10.3179 1.52109,-0.9352 1.54367,-2.4047 0.11835,-7.7056 -2.30302,-8.5654 -2.26338,-8.9115 1.1217,-9.7921 3.98738,-1.0372 3.64003,-5.6385 -0.82402,-10.9159 -2.03877,-2.4101 -3.288,-5.0562 -2.77605,-5.8803 0.51196,-0.824 0.5209,-3.3547 0.0199,-5.6238 -0.96543,-4.3725 -7.53555,-8.0459 -20.56369,-11.4977 -6.63782,-1.75869 -6.53235,-1.65867 -5.25113,-4.97988 0.64373,-1.6687 2.87003,-2.26802 8.42515,-2.26802 5.48394,0 8.20308,-0.71759 9.93576,-2.6221 1.31205,-1.44216 2.38554,-3.04435 2.38554,-3.56044 0,-0.51607 -3.10713,-2.50451 -6.90472,-4.41877 -8.33296,-4.20038 -21.23644,-6.76802 -28.29013,-5.62939 -3.37497,0.54479 -5.16507,0.2718 -5.16507,-0.78768 0,-0.90841 -2.30218,-1.62144 -5.23515,-1.62144 -4.09808,0 -6.25056,1.07099 -9.91024,4.93093 -3.47871,3.66907 -5.48307,4.72076 -7.83239,4.10964 -3.78796,-0.98536 -9.82768,1.95034 -10.89507,5.29573 -0.55321,1.73378 -2.59879,2.47538 -7.31769,2.65293 -7.75217,0.29168 -16.44904,4.37181 -20.65452,9.69003 l -3.0191,3.81786 0,-40.34058 0,-40.34068 7.56749,0.008 c 10.13758,0.0113 32.45895,3.50753 45.76526,7.16824 5.94589,1.63577 17.97934,6.44381 26.74101,10.68453 34.8431,16.86434 62.57386,43.56546 79.89735,76.93069 13.8802,26.7335 20.20712,52.2731 20.20712,81.5694 0,93.2719 -72.61996,170.1784 -166.12433,175.9301 l -14.0539,0.8645 0,-25.2645 z"
         style="opacity:1;fill:url(#linearGradient5423);fill-opacity:1;stroke:none;stroke-width:1;stroke-linecap:round;stroke-linejoin:round;stroke-miterlimit:0;stroke-dasharray:none;stroke-dashoffset:0;stroke-opacity:1" />
    </g>
  </g>
</svg>
