<svg xmlns="http://www.w3.org/2000/svg" xmlns:xlink="http://www.w3.org/1999/xlink" viewBox="0 0 117.2905 117.2905" height="125.11" width="125.11"><defs><linearGradient id="a"><stop offset="0" stop-color="#b59078"/><stop offset="1" stop-color="#5f4738"/></linearGradient><linearGradient y2="5524.197" x2="1713.945" y1="5524.197" x1="1596.654" gradientTransform="translate(-280.236 31.282)" gradientUnits="userSpaceOnUse" id="b" xlink:href="#a"/></defs><g transform="translate(-1316.418 -5496.834)"><circle cx="1375.063" cy="5555.479" r="58.645" fill="url(#b)"/><path d="M1395.578 5533.143a1.22 1.22 0 1 0 1.724-1.725l-1.707-1.707a1.22 1.22 0 0 0-1.732-.009 1.217 1.217 0 0 0 .008 1.733l1.707 1.708zm19.956 4.826h-2.414c-.682 0-1.233.541-1.233 1.22 0 .674.54 1.219 1.233 1.219h2.414a1.22 1.22 0 1 0 0-2.439zm-20.724 1.219a1.22 1.22 0 0 0-1.232-1.219h-2.415c-.68 0-1.23.541-1.23 1.22 0 .674.54 1.219 1.23 1.219h2.415c.68 0 1.232-.54 1.232-1.22zm8.538-7.319a7.317 7.317 0 0 0 0 14.631 7.318 7.318 0 0 0 7.316-7.315 7.318 7.318 0 0 0-7.316-7.316zm0 12.193a4.877 4.877 0 1 1 0-9.755 4.877 4.877 0 0 1 0 9.755zm-7.77 1.173l-1.707 1.707a1.22 1.22 0 0 0 1.724 1.724l1.707-1.707a1.22 1.22 0 0 0 .009-1.733 1.217 1.217 0 0 0-1.733.009zm15.541-12.092l1.707-1.708a1.22 1.22 0 0 0-1.724-1.724l-1.707 1.707a1.222 1.222 0 0 0-.009 1.732 1.22 1.22 0 0 0 1.733-.007zm-7.771 14.584c-.674 0-1.219.541-1.219 1.233v2.414a1.22 1.22 0 1 0 2.439 0v-2.414c0-.682-.54-1.233-1.22-1.233zm7.771-2.492a1.218 1.218 0 1 0-1.724 1.724l1.707 1.707a1.223 1.223 0 0 0 1.732.008 1.217 1.217 0 0 0-.008-1.732l-1.707-1.707zm-7.771-14.585c.675 0 1.22-.54 1.22-1.232v-2.414a1.219 1.219 0 1 0-2.439 0v2.414c0 .68.542 1.232 1.22 1.232z" fill="#c6aa66"/><path d="M1377.096 5586.65a3.717 3.717 0 0 1-2.177-1.95c-.209-.437-.234-.596-.234-1.47 0-.917.018-1.017.286-1.582.34-.718.958-1.355 1.612-1.66l.461-.216v-6.31c0-5.289.021-6.358.129-6.615.256-.614 1.117-.857 1.724-.487.567.345.551.15.551 7.097v6.303l.461.219c.632.3 1.288.983 1.622 1.688.258.543.277.652.277 1.563 0 .89-.022 1.026-.246 1.48-.842 1.714-2.733 2.535-4.466 1.94z" fill="#f30707"/><path d="M1376.071 5590.171c-2.068-.676-3.802-2.331-4.584-4.377-.935-2.446-.478-5.169 1.227-7.322l.783-.988v-11.116c0-8.766.072-11.288.34-11.93.625-1.495 2.812-2.944 4.445-2.944 1.683 0 3.577 1.266 4.311 2.883.426.938.463 1.897.468 12.248.005 11.1.011 11.236.536 11.71.292.264.823 1.047 1.18 1.74 1.29 2.508.735 6.038-1.283 8.144-1.793 1.871-5.05 2.728-7.423 1.952zm4.5-2.68c1.473-.75 2.496-2.473 2.496-4.202 0-1.526-.64-3.015-1.63-3.794l-.637-.5v-11.368c0-12.1-.057-12.722-1.221-13.345-.884-.473-2.218-.323-2.983.335l-.707.608-.07 11.792-.07 11.792-.845.885c-1.198 1.255-1.491 1.95-1.49 3.527 0 2.02.877 3.428 2.727 4.39 1.082.563 3.206.505 4.43-.12z" fill="#fff"/><path d="M1339.625 5550.982c0-1.759-3.131-5.713-3.131-5.713s-3.131 3.954-3.131 5.713c0 1.456 1.402 2.636 3.131 2.636 1.73 0 3.131-1.18 3.131-2.636zm-3.131 12.525c0 1.455 1.402 2.635 3.131 2.635 1.73 0 3.131-1.18 3.131-2.635 0-1.76-3.131-5.714-3.131-5.714s-3.131 3.954-3.131 5.714zm10.436-14.064s-3.13 3.955-3.13 5.713c0 1.456 1.401 2.637 3.13 2.637 1.73 0 3.132-1.18 3.132-2.637 0-1.758-3.131-5.713-3.131-5.713z" fill="#009dff"/><g transform="translate(524.031 2421.382) scale(.54648)" fill="#ebcc81"><rect width="38.556" height="34.444" x="-1852.047" y="5591.666" ry="9.768" transform="rotate(-33.264)"/><path d="M1560.986 5672.074a6.249 6.249 0 0 0-3.517 1.031l-14.533 9.534a6.252 6.252 0 0 0-1.801 8.675l5.244 7.996a6.252 6.252 0 0 0 8.676 1.803l14.533-9.533a6.252 6.252 0 0 0 1.803-8.676l-5.247-7.996a6.251 6.251 0 0 0-5.158-2.834zm-.431 2.844c1.23.12 2.48.875 3.302 2.129l4.663 7.105c1.315 2.006 1.023 4.507-.655 5.608-1.678 1.1-4.087.372-5.402-1.633l-4.662-7.108c-1.316-2.005-1.024-4.506.654-5.607.63-.413 1.36-.567 2.1-.494z"/><rect width="40.45" height="7.186" x="2485.124" y="5347.149" ry="2.038" transform="rotate(10.19)"/><path d="M1542.424 5671.041a6.255 6.255 0 0 0-3.52 1.031l-14.531 9.533a6.252 6.252 0 0 0-1.803 8.676l5.246 7.996a6.25 6.25 0 0 0 8.674 1.803l14.533-9.533a6.252 6.252 0 0 0 1.803-8.676l-5.246-7.996a6.248 6.248 0 0 0-5.156-2.834zm-.522 2.066c.595.01 1.173.301 1.526.838a1.851 1.851 0 0 1-.534 2.569l-15.824 10.38a1.849 1.849 0 0 1-2.566-.533 1.849 1.849 0 0 1 .533-2.566l15.824-10.381c.322-.211.684-.31 1.041-.305z"/></g></g></svg>