<svg xmlns="http://www.w3.org/2000/svg" viewBox="0 0 48.29923 53.379068" height="56.938" width="51.519"><path d="M47.6 5.274c-.3-.3-.599-.3-1.198-.3-.599.3-13.179 2.396-19.17 8.387-7.488 7.488-4.792 12.58-2.396 14.976.117.117.26.207.387.317a54.876 54.876 0 0 0-1.627 3.298c-.841-2.734-2.237-5.43-4.076-8.048.922-1.318 1.387-2.636 1.123-3.954-.3-2.097-1.797-4.193-4.493-6.29-4.792-3.594-14.077-4.193-14.377-4.193-.599 0-.898.3-1.198.599-.3.599-.3.898-.3 1.498 0 .3 2.696 8.985 7.489 12.879 2.396 1.797 4.492 2.696 6.59 2.696 1.101 0 2.189-.38 3.153-1.058 2.717 3.658 3.927 7.512 4.017 11.376-.812 2.702-1.282 5.35-1.417 7.953h-4.256c-.899 0-1.498.599-1.498 1.497 0 .899.6 1.498 1.498 1.498h11.681c.899 0 1.498-.6 1.498-1.498s-.599-1.497-1.498-1.497H23.1a31.247 31.247 0 0 1 1.351-7.489h.087c0-.071-.009-.146-.012-.218.776-2.465 1.875-4.972 3.295-7.491.871.323 1.785.52 2.707.52 2.996 0 5.99-1.796 8.986-5.091 5.99-5.99 8.387-18.57 8.387-19.17.3-.299 0-.898-.3-1.197zM9.56 22.047c-2.695-2.396-4.792-6.59-5.69-9.285 2.995.3 7.787 1.198 10.183 3.294 2.097 1.798 2.996 3.295 3.295 4.493.3.899 0 1.498-.599 2.397-1.797 2.096-4.193 1.497-7.188-.9zm28.156 1.498c-4.193 4.492-7.788 5.39-10.783 2.396-2.696-2.696-2.097-6.29 2.396-10.783 4.194-3.894 11.682-5.99 15.575-6.89-.898 3.595-3.294 11.383-7.188 15.277z" fill="#fff"/></svg>