<svg xmlns="http://www.w3.org/2000/svg" viewBox="0 0 48.29923 53.379068" height="56.938" width="51.519"><g fill="none" stroke="#fff" stroke-width="2.223"><path d="M34.925 10.962A23.038 21.925 0 0 1 46.103 36.99a23.038 21.925 0 0 1-24.93 15.093A23.038 21.925 0 0 1 1.14 31.415 23.038 21.925 0 0 1 18.952 8.982" stroke-linecap="round" stroke-dashoffset="50"/><path d="M16.87.71c5.082 15.621 3.47 16.328 3.461 16.33-7.126.863-12.09 2.304-15.793 4.31 5.268-.199 10.347-.208 15.158.05.212 4.72-.162 11.788-.242 17.682 2.399-5.261 5.004-12.168 7.191-15.734 4.212.038 9.689 1.256 18.658 6.051-3.217-5.506-9.659-7.466-14.947-10.694l9.02-15.654c-4.358 3.804-8.635 8.523-13.14 10.719-4.138-3.462-4.715-7.459-9.365-13.06z"/><path d="M26.816 20.214c-.404-1.837-.14-3.34.364-4.724-.14-2.007-1.642-2.744-3.244-1.249-1.097 1.612-.891 3.58-.77 5.524 1.216 1.612 2.433 1.455 3.65.449zm-2.88-5.973c-.284 1.554.67 2.677 3.244 1.25m-5.162-6.983c2.801-.244 8.947.33 10.337.95M11.996 38.667c.977.37.374 3.493-.267 4.014-.383 1.406-6.038-3.685-6.761-8.054-.014-1.775 1.153-4.43 1.866-2.832 1.224 2.574 2.583 4.958 5.162 6.872z"/></g></svg>