<?xml version="1.0" encoding="UTF-8" standalone="no"?>
<!-- Created with Inkscape (http://www.inkscape.org/) -->

<svg
   xmlns:dc="http://purl.org/dc/elements/1.1/"
   xmlns:cc="http://creativecommons.org/ns#"
   xmlns:rdf="http://www.w3.org/1999/02/22-rdf-syntax-ns#"
   xmlns:svg="http://www.w3.org/2000/svg"
   xmlns="http://www.w3.org/2000/svg"
   xmlns:sodipodi="http://sodipodi.sourceforge.net/DTD/sodipodi-0.dtd"
   xmlns:inkscape="http://www.inkscape.org/namespaces/inkscape"
   width="59.686283mm"
   height="72.842705mm"
   viewBox="0 0 211.48683 258.10407"
   id="svg5685"
   version="1.1"
   inkscape:version="0.91 r13725"
   sodipodi:docname="urogai.svg">
  <defs
     id="defs5687">
    <clipPath
       clipPathUnits="userSpaceOnUse"
       id="clipPath7159-4">
      <rect
         ry="18.472191"
         y="3863.6528"
         x="941.133"
         height="177.74817"
         width="151.39946"
         id="rect7161-0"
         style="opacity:1;fill:#5f4738;fill-opacity:1;fill-rule:nonzero;stroke:#ffffff;stroke-width:2.50377011;stroke-linecap:round;stroke-miterlimit:4;stroke-dasharray:none;stroke-dashoffset:50;stroke-opacity:1" />
    </clipPath>
    <filter
       height="1.3"
       width="1.3"
       y="-0.15000001"
       x="-0.15000001"
       inkscape:menu-tooltip="Van Gogh painting effect for bitmaps"
       inkscape:menu="Distort"
       inkscape:label="Pixel Smear"
       style="color-interpolation-filters:sRGB"
       id="filter7134-1">
      <feTurbulence
         type="fractalNoise"
         numOctaves="3"
         baseFrequency="0.25 0.4"
         seed="5"
         id="feTurbulence7136-3" />
      <feColorMatrix
         result="result5"
         values="1 0 0 0 0 0 1 0 0 0 0 0 1 0 0 0 0 0 1 0 "
         id="feColorMatrix7138-7" />
      <feComposite
         in="SourceGraphic"
         operator="in"
         in2="result5"
         id="feComposite7140-4" />
      <feMorphology
         operator="dilate"
         radius="1.5"
         result="result3"
         id="feMorphology7142-1" />
      <feTurbulence
         numOctaves="5"
         baseFrequency="0.03"
         type="fractalNoise"
         seed="7"
         id="feTurbulence7144-1" />
      <feGaussianBlur
         stdDeviation="0.5"
         result="result91"
         id="feGaussianBlur7146-3" />
      <feDisplacementMap
         in="result3"
         xChannelSelector="R"
         yChannelSelector="G"
         scale="27"
         result="result4"
         in2="result91"
         id="feDisplacementMap7148-0" />
      <feComposite
         k4="0"
         k2="0"
         in="result4"
         k3="0.8"
         k1="1.3"
         result="result2"
         operator="arithmetic"
         in2="result4"
         id="feComposite7150-3" />
      <feBlend
         in2="result2"
         mode="screen"
         in="result2"
         id="feBlend7152-2" />
    </filter>
  </defs>
  <sodipodi:namedview
     id="base"
     pagecolor="#ffffff"
     bordercolor="#666666"
     borderopacity="1.0"
     inkscape:pageopacity="0.0"
     inkscape:pageshadow="2"
     inkscape:zoom="0.98994949"
     inkscape:cx="21.425217"
     inkscape:cy="15.088519"
     inkscape:document-units="px"
     inkscape:current-layer="g7163"
     showgrid="false"
     fit-margin-top="0"
     fit-margin-left="0"
     fit-margin-right="0"
     fit-margin-bottom="0"
     inkscape:window-width="1301"
     inkscape:window-height="744"
     inkscape:window-x="65"
     inkscape:window-y="24"
     inkscape:window-maximized="1" />
  <metadata
     id="metadata5690">
    <rdf:RDF>
      <cc:Work
         rdf:about="">
        <dc:format>image/svg+xml</dc:format>
        <dc:type
           rdf:resource="http://purl.org/dc/dcmitype/StillImage" />
        <dc:title></dc:title>
      </cc:Work>
    </rdf:RDF>
  </metadata>
  <g
     inkscape:label="Layer 1"
     inkscape:groupmode="layer"
     id="layer1"
     transform="translate(-42.544363,-103.78559)">
    <g
       style="opacity:1"
       id="g7163"
       transform="matrix(1.1886324,0,0,1.1886324,-1065.0098,-4466.2892)">
      <rect
         clip-path="url(#clipPath7159-4)"
         transform="matrix(1.1751991,0,0,1.221637,-174.23002,-875.16364)"
         ry="22.566311"
         y="3840.0635"
         x="925.83075"
         height="217.14374"
         width="177.92451"
         id="rect6885-8"
         style="opacity:1;fill:#5f4738;fill-opacity:1;fill-rule:nonzero;stroke:#ffffff;stroke-width:3.33836007;stroke-linecap:round;stroke-miterlimit:4;stroke-dasharray:none;stroke-dashoffset:50;stroke-opacity:1;filter:url(#filter7134-1)" />
      <rect
         ry="21.068054"
         y="3852.0261"
         x="939.19702"
         height="202.72681"
         width="163.10773"
         id="rect6885-2"
         style="opacity:1;fill:none;fill-opacity:1;fill-rule:nonzero;stroke:#ffffff;stroke-width:2.7750001;stroke-linecap:round;stroke-miterlimit:4;stroke-dasharray:2.7750001, 8.32500029;stroke-dashoffset:27.75;stroke-opacity:1" />
      <g
         transform="matrix(0.38951312,0,0,0.38951312,983.69423,3785.244)"
         style="opacity:1"
         id="g4652-2-9-2">
        <path
           style="opacity:1;fill:#ffffff;fill-opacity:1;fill-rule:nonzero;stroke:none;stroke-width:1;stroke-linecap:round;stroke-miterlimit:2;stroke-dasharray:none;stroke-opacity:1"
           d="m 41.145046,560.72348 c -3.413295,0 -6.161566,2.74651 -6.161566,6.15981 l 0,4.1972 c 0,3.4133 2.748271,6.16157 6.161566,6.16157 l 2.586158,0 15.744847,56.39211 63.897999,0.15192 14.90222,-56.54403 2.63032,0 c 3.4133,0 6.16157,-2.74827 6.16157,-6.16157 l 0,-4.1972 c 0,-3.4133 -2.74827,-6.15981 -6.16157,-6.15981 l -99.761544,0 z"
           id="rect4206-0-0-9-6-3-9"
           inkscape:connector-curvature="0" />
        <path
           style="opacity:1;fill:#ffffff;fill-opacity:1;stroke:none;stroke-width:4;stroke-linecap:round;stroke-linejoin:round;stroke-miterlimit:4;stroke-dasharray:none;stroke-dashoffset:0;stroke-opacity:1"
           d="m 103.5023,466.34103 c -0.95595,-1.31751 -1.27916,-1.92246 -1.66109,-3.10905 -0.99879,-3.10308 -1.41644,-5.95063 -1.41644,-9.65732 0,-6.11493 1.42879,-12.01872 4.42964,-18.3034 0.84501,-1.76971 1.14041,-2.22416 1.88002,-2.89229 2.36424,-2.13575 5.64652,-3.73525 13.58609,-6.62068 5.38103,-1.9556 5.37574,-1.95439 8.52982,-1.95292 2.27575,9e-4 2.87717,0.0567 4.11848,0.38118 0.79947,0.20896 1.70346,0.48296 2.00886,0.60887 l 0.55527,0.22892 -2.23098,1.28315 c -14.68386,8.44532 -25.28023,21.29754 -27.93809,33.8858 -0.46241,2.19007 -0.81611,5.90145 -0.66868,7.01637 0.0558,0.42194 0.0772,0.76717 0.0477,0.76717 -0.0296,0 -0.58783,-0.73611 -1.24062,-1.6358 z"
           id="path4230-2-5-2-0-3-0"
           inkscape:connector-curvature="0" />
        <path
           style="opacity:1;fill:#ffffff;fill-opacity:1;stroke:none;stroke-width:4;stroke-linecap:round;stroke-linejoin:round;stroke-miterlimit:4;stroke-dasharray:none;stroke-dashoffset:0;stroke-opacity:1"
           d="m 105.90633,469.59305 c -0.42152,-0.28047 -0.42767,-5.32318 -0.01,-7.78536 1.40755,-8.28736 5.95188,-16.29094 13.56422,-23.88966 4.71166,-4.70322 9.99349,-8.64357 15.60617,-11.6425 l 1.56525,-0.83633 1.06227,0.52383 c 2.05648,1.01409 7.13523,4.46542 7.13523,4.84883 0,0.0725 -0.34396,0.18342 -0.76436,0.24646 -1.14697,0.172 -2.65928,0.79164 -3.91564,1.60438 -3.42039,2.21265 -5.81747,6.32126 -6.95504,11.92102 -0.18538,0.91259 -0.40772,1.68434 -0.49408,1.715 -0.36883,0.13094 -3.06909,1.987 -4.18328,2.87544 -0.66623,0.53123 -2.14162,1.83996 -3.27866,2.90828 -2.01459,1.89284 -2.79514,2.69909 -9.91395,10.24029 -3.57748,3.78976 -5.77806,5.84539 -7.21376,6.73861 -0.92036,0.5726 -1.81806,0.78908 -2.20488,0.53171 z"
           id="path4232-54-0-5-6-8-9"
           inkscape:connector-curvature="0" />
        <path
           style="opacity:1;fill:#ffffff;fill-opacity:1;stroke:none;stroke-width:4;stroke-linecap:round;stroke-linejoin:round;stroke-miterlimit:4;stroke-dasharray:none;stroke-dashoffset:0;stroke-opacity:1"
           d="m 135.62397,424.1748 c -0.39973,-0.17731 -1.41724,-0.5125 -2.26113,-0.74486 -1.37308,-0.37807 -1.83138,-0.42362 -4.36074,-0.43337 -2.23465,-0.009 -3.08222,0.0518 -4.04825,0.28885 l -1.22186,0.29973 -1.26396,-0.52618 c -1.59968,-0.66595 -2.67194,-1.63046 -2.67194,-2.40346 0,-1.15072 1.29576,-2.80974 3.47627,-4.45084 1.07853,-0.81173 1.33343,-0.92507 2.77233,-1.23277 0.87152,-0.18637 2.13388,-0.34438 2.80524,-0.35114 1.04021,-0.0105 1.37739,0.061 2.28105,0.48393 0.58322,0.27292 1.35096,0.75872 1.70609,1.07956 0.35512,0.32083 0.68616,0.58333 0.73563,0.58333 0.0495,0 0.24582,-0.41661 0.43634,-0.92578 0.54444,-1.45517 1.69951,-3.57695 2.59303,-4.76325 1.44715,-1.92132 3.396,-3.33368 5.62374,-4.07558 1.08687,-0.36196 1.50163,-0.41045 3.51135,-0.41045 2.56935,0 3.87711,0.19026 4.31453,0.62769 0.28992,0.2899 0.28922,0.3156 -0.025,0.92543 -0.17774,0.34499 -0.58391,0.87771 -0.9026,1.18384 -0.63304,0.60807 -0.70225,0.83627 -0.34384,1.13372 0.18827,0.15626 0.53227,0.0953 1.71256,-0.30359 6.09455,-2.05955 13.66244,-1.83893 21.92913,0.63929 2.98069,0.89357 5.48566,1.90509 8.4245,3.40189 3.31295,1.68732 6.20515,3.8449 5.75606,4.29399 -0.0561,0.0561 -1.46503,-0.16383 -3.13093,-0.48875 -8.2642,-1.61191 -15.59761,-1.84073 -23.70204,-0.73958 -7.37589,1.00217 -15.87892,3.58261 -22.05627,6.69347 -0.61171,0.30805 -1.16853,0.55496 -1.23737,0.54869 -0.0688,-0.006 -0.45221,-0.15649 -0.85195,-0.33381 z"
           id="path4234-0-6-4-6-0-9"
           inkscape:connector-curvature="0" />
        <path
           style="opacity:1;fill:#ffffff;fill-opacity:1;stroke:none;stroke-width:4;stroke-linecap:round;stroke-linejoin:round;stroke-miterlimit:4;stroke-dasharray:none;stroke-dashoffset:0;stroke-opacity:1"
           d="m 144.67858,429.54152 c -1.47794,-1.17853 -4.03114,-2.88427 -5.71044,-3.81502 l -1.45313,-0.80538 1.81319,-0.82712 c 14.06662,-6.41679 29.3647,-8.28152 43.83642,-5.34336 1.25412,0.25462 2.33335,0.51698 2.39828,0.58302 0.0649,0.066 -0.51583,0.71674 -1.29058,1.44599 -1.81335,1.70686 -3.36805,2.32857 -5.90042,2.3595 -4.03772,0.0493 -9.83253,-0.33388 -11.53461,-0.76275 -3.7763,-0.95153 -7.36141,-1.09616 -10.27836,-0.41464 -0.56532,0.13207 -1.95744,0.68356 -3.09362,1.22553 -2.31447,1.10401 -4.63975,3.07365 -6.43309,5.44917 -0.57969,0.76789 -1.11584,1.46952 -1.19146,1.55917 -0.0756,0.0896 -0.59859,-0.20469 -1.16218,-0.65411 z"
           id="path4236-59-4-4-4-5-4"
           inkscape:connector-curvature="0" />
        <path
           style="opacity:1;fill:#ffffff;fill-opacity:1;stroke:none;stroke-width:4;stroke-linecap:round;stroke-linejoin:round;stroke-miterlimit:4;stroke-dasharray:none;stroke-dashoffset:0;stroke-opacity:1"
           d="m 185.79148,497.01331 c -0.49888,-1.93947 -1.23689,-4.02071 -2.85502,-8.05139 -6.07655,-15.13642 -15.12247,-31.71572 -23.76691,-43.55984 -3.31604,-4.54345 -5.78836,-7.47058 -9.41238,-11.14391 l -3.26745,-3.31191 0.40933,-0.7986 c 0.22515,-0.43922 1.38579,-1.78058 2.57922,-2.9808 2.45521,-2.46918 4.7072,-3.81798 7.45167,-4.46309 2.13795,-0.50255 6.79082,-0.33324 9.31783,0.33906 0.99481,0.26467 1.84414,0.51659 1.88738,0.55984 0.0432,0.0432 -0.38525,1.0781 -0.95222,2.29968 -0.56698,1.22157 -1.03086,2.29974 -1.03086,2.39593 0,0.25253 4.8062,1.69687 8.79371,2.64266 6.99243,1.65851 11.07273,3.41403 14.792,6.36418 0.27338,0.21685 0.54785,1.11135 0.85654,2.79148 0.71503,3.89188 0.60719,4.91667 -0.62708,5.95866 l -0.58146,0.49087 0.53953,0.76537 c 0.29674,0.42095 1.58891,1.86747 2.87148,3.21448 2.42743,2.54938 3.70455,4.61916 4.16152,6.74442 0.19781,0.91993 0.1711,1.00267 -0.50932,1.57788 -1.29407,1.09398 -2.56985,1.51816 -4.17782,1.38909 -0.92847,-0.0745 -1.5146,-0.0237 -1.65104,0.1432 -0.13635,0.1668 0.47485,2.56882 1.71996,6.7594 l 1.93148,6.50065 -0.36347,0.95175 c -0.59349,1.55401 -1.29031,1.97294 -2.68824,1.61611 l -0.62812,-0.16032 -0.002,4.51541 c -0.005,9.34663 -0.9322,14.5095 -2.97512,16.56394 -1.12018,1.1265 -1.50992,1.10209 -1.82278,-0.1142 l 0,0 z"
           id="path4238-46-6-9-6-6-5"
           inkscape:connector-curvature="0" />
        <path
           style="opacity:1;fill:#ffffff;fill-opacity:1;stroke:none;stroke-width:4;stroke-linecap:round;stroke-linejoin:round;stroke-miterlimit:4;stroke-dasharray:none;stroke-dashoffset:0;stroke-opacity:1"
           d="m 181.25721,496.03541 c -9.90691,-5.00609 -18.11361,-12.12341 -25.24612,-21.89486 -1.97673,-2.70809 -4.47117,-6.61472 -5.95913,-9.33279 -1.21468,-2.21885 -1.41197,-2.13754 -3.05005,1.25695 -2.02209,4.19025 -3.56595,5.53299 -6.54575,5.69301 l -1.37045,0.0736 -1.29121,-2.50918 c -1.49389,-2.90304 -2.74046,-6.43183 -3.54447,-10.03373 -0.77469,-3.47055 -0.99528,-10.37671 -0.43442,-13.6009 1.2359,-7.10468 4.62313,-12.06925 9.1989,-13.48256 2.64026,-0.8155 2.7865,-0.76743 5.37887,1.76772 10.02217,9.80098 21.60467,27.89473 30.63327,47.85415 2.7762,6.13731 6.08329,14.67974 6.08329,15.71351 0,0.39341 -0.42299,0.22818 -3.85273,-1.50491 z"
           id="path4240-9-2-9-2-6-1"
           inkscape:connector-curvature="0" />
        <path
           style="opacity:1;fill:#ffffff;fill-opacity:1;stroke:none;stroke-width:0.25253814;stroke-linecap:round;stroke-linejoin:round;stroke-miterlimit:0;stroke-dasharray:none;stroke-dashoffset:0;stroke-opacity:1"
           d="m -6.5193159,496.71759 c -0.4131619,-1.1733 -0.3500222,-5.13815 0.1245699,-7.82298 0.940628,-5.32116 2.6333335,-11.3007 6.98312322,-24.66807 1.49207128,-4.58529 2.94355988,-9.21056 3.22552218,-10.27836 0.4094536,-1.55062 0.6695372,-2.09092 1.2918893,-2.68381 0.4285827,-0.40827 0.9003981,-0.74265 1.0484837,-0.74305 0.4677454,-0.002 2.9694724,-1.78142 3.2736209,-2.32942 0.6299767,-1.13506 0.1755356,-2.54545 -1.6399127,-5.08958 -0.5802047,-0.81308 -0.9919375,-1.5802 -0.9149779,-1.70473 0.2832647,-0.45833 2.5504678,-1.00987 15.0738453,-3.66702 2.382231,-0.50545 4.415507,-1.00318 4.518397,-1.10607 0.10289,-0.10289 0.158071,-1.45918 0.122625,-3.014 l -0.0644,-2.82693 -2.51249,-0.508 c -1.381873,-0.2794 -4.112761,-0.81855 -6.068652,-1.1981 -4.634285,-0.89932 -6.532355,-1.60733 -8.0532958,-3.004 -0.649775,-0.59669 -1.3644534,-1.39963 -1.5881872,-1.78433 -0.4002192,-0.68818 -0.3983741,-0.70495 0.1142049,-1.04013 0.2865479,-0.18737 1.0349079,-0.56249 1.6630301,-0.83362 0.628123,-0.27112 5.099208,-2.42418 9.935755,-4.78458 9.098804,-4.44055 12.589999,-5.95034 16.095964,-6.96081 5.881964,-1.6953 11.235893,-1.68777 16.449803,0.0231 2.556057,0.83874 6.73714,2.84969 8.4139,4.04678 2.204217,1.57366 5.830293,5.57072 5.388497,5.93979 -0.05255,0.0439 -1.688663,0.67359 -3.635845,1.39937 -16.120655,6.00863 -28.680292,14.47221 -39.076502,26.3325 -6.97596,7.95838 -12.31,16.23842 -20.1937018,31.34673 -8.7570483,16.78197 -9.3071619,17.81134 -9.5200333,17.81395 -0.084476,9.1e-4 -0.2893155,-0.38356 -0.4552007,-0.85465 z"
           id="path4165-2-8-6-8-4-0"
           inkscape:connector-curvature="0" />
        <path
           style="opacity:1;fill:#ffffff;fill-opacity:1;stroke:none;stroke-width:0.50507629;stroke-linecap:round;stroke-linejoin:round;stroke-miterlimit:0;stroke-dasharray:none;stroke-dashoffset:0;stroke-opacity:1"
           d="m -3.706838,495.63933 c 0,-0.51683 12.0422099,-23.42201 14.628014,-27.82355 11.253593,-19.15583 23.942467,-31.59455 40.899241,-40.09291 4.023139,-2.01631 14.36425,-6.27395 15.238401,-6.27395 0.651204,0 3.96917,4.77831 5.361236,7.72091 1.653055,3.49428 2.768748,7.60961 3.599377,13.27662 0.387964,2.64693 1.017081,6.49838 1.398026,8.55877 l 0.692646,3.74618 -2.39189,3.19624 -2.391891,3.19625 -1.258063,-0.74315 c -1.423505,-0.84089 -3.262821,-3.97138 -4.030853,-6.86047 -0.283871,-1.0678 -0.662374,-1.94073 -0.84113,-1.93982 -0.178746,9e-4 -0.693776,1.49127 -1.144491,3.31191 -0.905942,3.65954 -4.699568,11.62556 -5.895694,12.38006 -1.948131,1.22885 -4.364423,-1.65265 -11.531955,-13.75215 -2.418572,-4.0828 -4.600142,-7.42327 -4.847943,-7.42327 -0.247801,0 -0.688295,0.5218 -0.978877,1.15955 -0.410657,0.90132 -0.355087,2.65574 0.249556,7.87792 0.734531,6.34396 0.734196,6.7503 -0.0063,7.29155 -1.583385,1.15777 -3.544658,0.69811 -5.350899,-1.25408 -0.929856,-1.005 -1.919677,-1.82726 -2.199613,-1.82726 -0.362359,0 -0.427733,1.69838 -0.226945,5.89605 l 0.282026,5.89605 -2.011723,1.85434 c -3.017671,2.7816 -4.859719,3.00665 -5.736384,0.70085 -0.408993,-1.07572 -0.560524,-0.99838 -8.308722,4.24024 -10.1519543,6.86382 -13.5628254,9.42074 -18.86825707,14.14434 -2.37996993,2.11896 -4.32721473,3.71322 -4.32721473,3.54278 z"
           id="path4167-4-6-0-9-0-3"
           inkscape:connector-curvature="0" />
        <path
           style="opacity:1;fill:#ffffff;fill-opacity:1;stroke:none;stroke-width:1;stroke-linecap:round;stroke-linejoin:round;stroke-miterlimit:0;stroke-dasharray:none;stroke-dashoffset:0;stroke-opacity:1"
           d="m 9.0123601,542.03492 c 0.5065283,-3.12137 4.3654009,-6.73537 11.9573639,-11.1986 13.469278,-7.91842 15.306334,-8.73729 21.849397,-9.73939 5.453336,-0.83519 10.960008,-0.56095 17.119946,0.85259 4.811385,1.10409 16.831843,4.94952 16.224478,5.19032 -0.306962,0.12171 -1.866333,0.23173 -3.465274,0.24452 -6.215399,0.0497 -20.149085,1.15954 -26.971994,2.14837 -12.549019,1.81872 -18.124393,3.76017 -30.013859,10.45137 -2.206008,1.24151 -4.659374,2.47823 -5.451926,2.74828 l -1.4409877,0.491 0.1928558,-1.18846 z"
           id="path4173-7-8-0-6-0-7"
           inkscape:connector-curvature="0" />
        <path
           style="opacity:1;fill:#ffffff;fill-opacity:1;stroke:none;stroke-width:1;stroke-linecap:round;stroke-linejoin:round;stroke-miterlimit:0;stroke-dasharray:none;stroke-dashoffset:0;stroke-opacity:1"
           d="m 16.816182,540.30929 c 4.002056,-2.40672 8.644227,-4.76388 11.709915,-5.94596 8.014024,-3.09007 21.143935,-5.11885 38.680869,-5.9768 9.398864,-0.45982 12.436287,-0.52989 12.436233,-0.28689 -8.1e-5,0.36404 -2.984965,2.14102 -5.857571,3.48717 -1.525871,0.71505 -4.502443,1.79469 -6.614596,2.39921 -7.090599,2.02938 -12.087297,2.76117 -35.549735,5.20639 -6.695807,0.69782 -12.888893,1.57256 -16.186274,2.28621 -0.542281,0.11737 -0.0123,-0.33137 1.381159,-1.16933 z"
           id="path4175-5-4-2-0-4-8"
           inkscape:connector-curvature="0" />
        <path
           style="opacity:1;fill:#ffffff;fill-opacity:1;stroke:none;stroke-width:1;stroke-linecap:round;stroke-linejoin:round;stroke-miterlimit:0;stroke-dasharray:none;stroke-dashoffset:0;stroke-opacity:1"
           d="m 163.45467,548.13735 c -9.54273,-7.7607 -21.44121,-14.60342 -30.85466,-17.74428 -7.73223,-2.5799 -10.43819,-3.03437 -19.76048,-3.31875 l -8.58805,-0.26197 6.92527,-3.37776 c 8.08107,-3.9415 11.05995,-5.01667 15.67929,-5.65916 4.03805,-0.56165 8.03064,-0.0361 12.49706,1.64509 3.74093,1.40808 4.55851,2.02152 13.31971,9.99389 9.81202,8.92857 12.84666,12.7319 14.39735,18.04427 0.79922,2.73801 0.89876,3.69476 0.38165,3.66829 -0.18844,-0.01 -1.98715,-1.35497 -3.99714,-2.98962 z"
           id="path4181-1-2-4-7-6-8"
           inkscape:connector-curvature="0" />
        <path
           style="opacity:1;fill:#ffffff;fill-opacity:1;stroke:none;stroke-width:1;stroke-linecap:round;stroke-linejoin:round;stroke-miterlimit:0;stroke-dasharray:none;stroke-dashoffset:0;stroke-opacity:1"
           d="m 161.6274,549.0307 c -3.32806,-1.23666 -9.22425,-2.46549 -21.80134,-4.54361 -16.87936,-2.78899 -22.08096,-4.15912 -28.67686,-7.55365 -3.74551,-1.9276 -8.52535,-5.57358 -9.74279,-7.43163 -0.75952,-1.15917 -0.75146,-1.18445 0.48811,-1.53099 0.69322,-0.19379 4.85782,-0.34045 9.25468,-0.3259 6.50427,0.0215 8.88829,0.21861 12.79086,1.0574 11.45745,2.4626 21.54131,7.20897 33.34759,15.69641 7.46877,5.36924 8.08024,6.02188 4.33975,4.63197 z"
           id="path4183-2-4-3-0-2-6"
           inkscape:connector-curvature="0" />
        <g
           id="g4605-1-6-0"
           style="stroke:#ffffff;stroke-width:4;stroke-miterlimit:4;stroke-dasharray:none;stroke-opacity:1">
          <g
             transform="matrix(0.90445006,0,0,0.90445006,435.52142,141.09922)"
             id="g4201-36-6-1-0-7-4"
             style="fill:#ffffff;fill-opacity:1;stroke:#ffffff;stroke-width:4.4225769;stroke-miterlimit:4;stroke-dasharray:none;stroke-opacity:1">
            <path
               sodipodi:nodetypes="cc"
               style="fill:none;fill-opacity:1;fill-rule:evenodd;stroke:#ffffff;stroke-width:4.4225769;stroke-linecap:butt;stroke-linejoin:miter;stroke-miterlimit:4;stroke-dasharray:none;stroke-opacity:1"
               d="m -380.74251,430.98317 c -9.34023,-2.9393 -17.11919,-0.44658 -17.31966,-0.36305"
               id="path4195-8-2-7-1-5-6"
               inkscape:connector-curvature="0" />
            <path
               sodipodi:nodetypes="ccc"
               style="fill:none;fill-opacity:1;fill-rule:evenodd;stroke:#ffffff;stroke-width:4.4225769;stroke-linecap:butt;stroke-linejoin:miter;stroke-miterlimit:4;stroke-dasharray:none;stroke-opacity:1"
               d="m -380.88958,463.95515 c 0.50508,-142.43151 0,-125.25891 0,-125.25891 -1.53053,-30.38621 31.80969,-29.60643 34.34519,-26.26397"
               id="path4197-02-9-4-3-6-7"
               inkscape:connector-curvature="0" />
            <path
               sodipodi:nodetypes="cc"
               style="fill:none;fill-opacity:1;fill-rule:evenodd;stroke:#ffffff;stroke-width:4.4225769;stroke-linecap:butt;stroke-linejoin:miter;stroke-miterlimit:4;stroke-dasharray:none;stroke-opacity:1"
               d="m -380.88958,338.69624 c -4.95991,-17.32257 -13.92046,-26.64385 -26.49898,-28.7292"
               id="path4199-1-9-3-7-9-6"
               inkscape:connector-curvature="0" />
          </g>
          <path
             sodipodi:nodetypes="cc"
             style="fill:none;fill-opacity:1;fill-rule:evenodd;stroke:#ffffff;stroke-width:4;stroke-linecap:butt;stroke-linejoin:miter;stroke-miterlimit:4;stroke-dasharray:none;stroke-opacity:1"
             d="m 106.07215,527.57571 c -8.57673,-0.44987 -13.068003,2.88284 -14.408524,3.21197"
             id="path4195-1-0-0-1-7-8-0"
             inkscape:connector-curvature="0" />
        </g>
      </g>
      <text
         sodipodi:linespacing="130%"
         id="text4165-4-85-7-3-1-6-2-9"
         y="3890.8806"
         x="981.94635"
         style="font-style:normal;font-variant:normal;font-weight:normal;font-stretch:normal;font-size:37.5px;line-height:129.99999523%;font-family:'Courier 10 Pitch';-inkscape-font-specification:'Courier 10 Pitch, Normal';text-align:start;letter-spacing:0px;word-spacing:0px;writing-mode:lr-tb;text-anchor:start;opacity:1;fill:#ffffff;fill-opacity:1;stroke:none;stroke-width:1px;stroke-linecap:butt;stroke-linejoin:miter;stroke-opacity:1"
         xml:space="preserve"><tspan
           style="font-style:normal;font-variant:normal;font-weight:normal;font-stretch:normal;font-size:20px;font-family:Lato;-inkscape-font-specification:Lato"
           y="3890.8806"
           x="981.94635"
           id="tspan4173-1-6-2-5-8-8-1-7"
           sodipodi:role="line">Богатый </tspan><tspan
           id="tspan7117"
           style="font-style:normal;font-variant:normal;font-weight:normal;font-stretch:normal;font-size:20px;font-family:Lato;-inkscape-font-specification:Lato"
           y="3916.8806"
           x="981.94635"
           sodipodi:role="line">Урожай</tspan></text>
    </g>
  </g>
</svg>
