<svg xmlns="http://www.w3.org/2000/svg" width="217.45" height="242.34" viewBox="0 0 203.85904 227.19356"><g opacity=".5"><path d="M47.939 154.131a6.147 6.147 0 0 0-6.162 6.16v4.197a6.148 6.148 0 0 0 6.162 6.162h2.586l15.745 56.392 63.898.152 14.902-56.544h2.63a6.148 6.148 0 0 0 6.162-6.162v-4.197a6.147 6.147 0 0 0-6.162-6.16H47.94zm62.357-94.382c-.956-1.318-1.28-1.923-1.661-3.11-.999-3.103-1.417-5.95-1.417-9.657 0-6.115 1.43-12.019 4.43-18.303.845-1.77 1.14-2.224 1.88-2.893 2.364-2.135 5.647-3.735 13.586-6.62 5.381-1.956 5.376-1.955 8.53-1.953 2.276 0 2.877.057 4.118.381.8.209 1.704.483 2.01.609l.555.229-2.231 1.283c-14.684 8.445-25.28 21.298-27.938 33.886-.463 2.19-.817 5.901-.67 7.016.057.422.078.767.049.767-.03 0-.588-.736-1.241-1.635z" fill="#fff"/><path d="M112.7 63c-.422-.28-.428-5.323-.01-7.785 1.408-8.287 5.952-16.29 13.564-23.89 4.712-4.703 9.994-8.643 15.606-11.642l1.566-.836 1.062.524c2.056 1.014 7.135 4.465 7.135 4.848 0 .073-.344.184-.764.247-1.147.172-2.66.791-3.916 1.604-3.42 2.213-5.817 6.321-6.955 11.921-.185.913-.408 1.685-.494 1.715-.369.131-3.07 1.987-4.183 2.876-.667.53-2.142 1.84-3.279 2.908-2.015 1.893-2.795 2.699-9.914 10.24-3.577 3.79-5.778 5.846-7.214 6.739-.92.572-1.818.789-2.205.532zm29.718-45.418c-.4-.177-1.418-.512-2.262-.745-1.373-.378-1.83-.423-4.36-.433-2.235-.009-3.082.052-4.048.289l-1.222.3-1.264-.527c-1.6-.666-2.672-1.63-2.672-2.403 0-1.15 1.296-2.81 3.476-4.45 1.079-.813 1.333-.926 2.772-1.234.872-.186 2.134-.344 2.806-.35 1.04-.011 1.377.06 2.28.483.584.273 1.352.759 1.707 1.08.355.32.686.583.735.583.05 0 .246-.417.437-.926.544-1.455 1.7-3.577 2.593-4.763 1.447-1.921 3.396-3.334 5.623-4.076 1.087-.362 1.502-.41 3.512-.41 2.57 0 3.877.19 4.314.628.29.29.29.315-.025.925-.177.345-.584.878-.902 1.184-.633.608-.703.836-.344 1.134.188.156.532.095 1.712-.304 6.095-2.06 13.663-1.839 21.93.64 2.98.893 5.485 1.904 8.424 3.401 3.313 1.688 6.205 3.845 5.756 4.294-.056.056-1.465-.164-3.13-.488-8.265-1.612-15.598-1.841-23.703-.74-7.376 1.002-15.879 3.583-22.056 6.693-.612.308-1.169.555-1.237.55-.07-.007-.453-.157-.852-.335z" fill="#fff"/><path d="M151.472 22.949c-1.478-1.179-4.03-2.884-5.71-3.815l-1.453-.805 1.813-.828c14.066-6.416 29.365-8.281 43.836-5.343 1.254.255 2.334.517 2.399.583.064.066-.516.717-1.291 1.446-1.813 1.707-3.368 2.329-5.9 2.36-4.038.049-9.833-.334-11.535-.763-3.776-.952-7.361-1.096-10.278-.415-.566.132-1.958.684-3.094 1.226-2.315 1.104-4.64 3.073-6.433 5.449-.58.768-1.116 1.47-1.192 1.56-.075.089-.598-.206-1.162-.655z" fill="#fff"/><path d="M192.585 90.42c-.499-1.939-1.237-4.02-2.855-8.05-6.076-15.137-15.122-31.716-23.767-43.56-3.316-4.544-5.788-7.471-9.412-11.144l-3.268-3.312.41-.799c.225-.44 1.385-1.78 2.579-2.98 2.455-2.47 4.707-3.819 7.452-4.464 2.138-.502 6.79-.333 9.317.34.995.264 1.845.516 1.888.56.043.042-.385 1.077-.952 2.299-.567 1.221-1.031 2.3-1.031 2.396 0 .252 4.806 1.697 8.793 2.642 6.993 1.659 11.073 3.414 14.792 6.365.274.216.548 1.11.857 2.791.715 3.892.607 4.917-.627 5.959l-.582.49.54.766c.297.42 1.589 1.867 2.871 3.214 2.428 2.55 3.705 4.62 4.162 6.745.198.92.171 1.003-.51 1.578-1.293 1.094-2.57 1.518-4.177 1.389-.929-.075-1.515-.024-1.651.143-.137.167.475 2.569 1.72 6.76l1.931 6.5-.363.952c-.594 1.554-1.29 1.973-2.688 1.616l-.629-.16-.002 4.515c-.005 9.347-.932 14.51-2.975 16.564-1.12 1.126-1.51 1.102-1.823-.114z" fill="#fff"/><path d="M188.05 89.443c-9.906-5.006-18.113-12.124-25.245-21.895-1.977-2.708-4.471-6.615-5.96-9.333-1.214-2.219-1.411-2.137-3.05 1.257-2.022 4.19-3.565 5.533-6.545 5.693l-1.37.074-1.292-2.51c-1.494-2.902-2.74-6.431-3.544-10.033-.775-3.47-.996-10.377-.435-13.601 1.236-7.105 4.623-12.07 9.2-13.483 2.64-.815 2.786-.767 5.378 1.768 10.022 9.801 21.605 27.895 30.633 47.854 2.777 6.138 6.084 14.68 6.084 15.714 0 .393-.423.228-3.853-1.505zM.274 90.125c-.413-1.173-.35-5.138.125-7.823.94-5.321 2.633-11.3 6.983-24.668 1.492-4.585 2.944-9.21 3.226-10.278.409-1.551.67-2.091 1.291-2.684.429-.408.9-.743 1.049-.743.468-.002 2.97-1.782 3.274-2.33.63-1.135.175-2.545-1.64-5.09-.58-.812-.992-1.58-.915-1.704.283-.458 2.55-1.01 15.073-3.667 2.383-.505 4.416-1.003 4.519-1.106.103-.103.158-1.46.123-3.014l-.065-2.827-2.512-.508a981.85 981.85 0 0 0-6.069-1.198c-4.634-.9-6.532-1.607-8.053-3.004-.65-.597-1.365-1.4-1.589-1.784-.4-.689-.398-.705.115-1.04.286-.188 1.035-.563 1.663-.834.628-.271 5.099-2.424 9.935-4.785 9.1-4.44 12.59-5.95 16.096-6.96 5.882-1.696 11.236-1.688 16.45.023 2.556.838 6.737 2.85 8.414 4.046 2.204 1.574 5.83 5.571 5.389 5.94-.053.044-1.689.674-3.636 1.4-16.12 6.008-28.68 14.472-39.077 26.332-6.976 7.958-12.31 16.238-20.193 31.347C1.493 89.948.942 90.977.73 90.98c-.085 0-.29-.384-.456-.855z" fill="#fff"/><path d="M3.087 89.047c0-.517 12.042-23.422 14.628-27.824 11.253-19.156 23.942-31.594 40.9-40.093 4.022-2.016 14.363-6.274 15.237-6.274.652 0 3.97 4.779 5.362 7.721 1.653 3.495 2.768 7.61 3.6 13.277a285.382 285.382 0 0 0 1.397 8.559l.693 3.746-2.392 3.196-2.392 3.196-1.258-.743c-1.424-.84-3.263-3.971-4.03-6.86-.285-1.068-.663-1.941-.842-1.94-.179 0-.694 1.491-1.145 3.312-.906 3.66-4.7 11.625-5.895 12.38-1.948 1.229-4.365-1.653-11.532-13.752-2.419-4.083-4.6-7.424-4.848-7.424-.248 0-.688.522-.979 1.16-.41.901-.355 2.656.25 7.878.734 6.344.734 6.75-.007 7.291-1.583 1.158-3.544.699-5.35-1.254-.93-1.005-1.92-1.827-2.2-1.827-.363 0-.428 1.699-.227 5.896l.282 5.896-2.012 1.855c-3.018 2.781-4.86 3.006-5.736.7-.41-1.075-.56-.998-8.309 4.24C16.13 78.225 12.719 80.78 7.414 85.505c-2.38 2.119-4.328 3.713-4.328 3.543zm12.719 46.395c.507-3.121 4.365-6.735 11.957-11.198 13.47-7.919 15.307-8.737 21.85-9.74 5.453-.835 10.96-.56 17.12.853 4.811 1.104 16.832 4.95 16.224 5.19-.307.122-1.866.232-3.465.245-6.215.05-20.15 1.16-26.972 2.148-12.55 1.819-18.124 3.76-30.014 10.452-2.206 1.241-4.66 2.478-5.452 2.748l-1.44.49.192-1.188z" fill="#fff"/><path d="M23.61 133.717c4.002-2.407 8.644-4.764 11.71-5.946 8.014-3.09 21.144-5.119 38.68-5.977 9.4-.46 12.437-.53 12.437-.287 0 .364-2.985 2.141-5.858 3.487-1.526.715-4.502 1.795-6.614 2.4-7.09 2.029-12.088 2.76-35.55 5.206-6.696.698-12.889 1.572-16.186 2.286-.543.117-.013-.331 1.38-1.17zm146.638 7.828c-9.542-7.76-21.44-14.604-30.854-17.744-7.733-2.58-10.439-3.035-19.76-3.32l-8.589-.261 6.925-3.378c8.081-3.941 11.06-5.017 15.68-5.66 4.038-.56 8.03-.035 12.497 1.646 3.74 1.408 4.558 2.022 13.32 9.994 9.811 8.928 12.846 12.732 14.397 18.044.799 2.738.899 3.695.381 3.668-.188-.01-1.987-1.355-3.997-2.99z" fill="#fff"/><path d="M168.421 142.438c-3.328-1.236-9.224-2.465-21.801-4.543-16.88-2.79-22.081-4.16-28.677-7.554-3.746-1.928-8.526-5.574-9.743-7.432-.76-1.159-.751-1.184.488-1.53.693-.194 4.858-.341 9.255-.327 6.504.022 8.888.219 12.79 1.058 11.458 2.462 21.542 7.209 33.348 15.696 7.47 5.37 8.08 6.022 4.34 4.632z" fill="#fff"/><path d="M97.952 124.31c-8.447-2.659-15.483-.404-15.664-.329m15.532 30.15c.456-128.822 0-113.29 0-113.29-1.385-27.483 28.77-26.778 31.063-23.755M97.82 40.84c-4.487-15.667-12.59-24.097-23.968-25.984m39.014 106.127c-8.577-.45-13.068 2.883-14.409 3.212" stroke="#fff" stroke-width="4" fill="none"/></g></svg>