<svg xmlns="http://www.w3.org/2000/svg" width="50.276" height="55.37" viewBox="0 0 47.134196 51.909211"><g fill="red" stroke="#009642" stroke-width="8.397"><path d="M21.998 8.795a23.038 21.568 0 0 1 23.984 19.591A23.038 21.568 0 0 1 26.17 51.71 23.038 21.568 0 0 1 .38 34.244 23.038 21.568 0 0 1 17.84 9.33" stroke="none"/><path d="M15.759.71c5.082 15.621 3.47 16.328 3.46 16.33-7.126.863-12.09 2.304-15.792 4.31 5.267-.199 10.346-.208 15.157.05.213 4.72-.161 11.788-.242 17.682 2.4-5.261 5.004-12.168 7.192-15.734 4.21.038 9.688 1.256 18.657 6.051-3.217-5.506-9.659-7.466-14.947-10.694L38.265 3.05c-4.36 3.804-8.635 8.523-13.14 10.719-4.14-3.462-4.716-7.459-9.366-13.06z" fill="#009642" fill-rule="evenodd" stroke-width="2.223"/><path d="M25.705 20.214c-.405-1.837-.141-3.34.363-4.724-.14-2.007-1.642-2.744-3.244-1.249-1.096 1.612-.891 3.58-.77 5.524 1.217 1.612 2.434 1.455 3.65.449zm-2.881-5.973c-.283 1.554.67 2.677 3.244 1.25" stroke-width="2.223" fill="#2a4d39" stroke="#047536" fill-rule="evenodd"/><path d="M10.884 38.667c.978.37.374 3.493-.266 4.014-.384 1.406-6.039-3.685-6.762-8.054-.014-1.775 1.154-4.43 1.866-2.832 1.224 2.574 2.583 4.958 5.162 6.872z" fill="#fff" fill-rule="evenodd" stroke="none"/></g></svg>